ply
format ascii 1.0
comment VCGLIB generated
element vertex 132
property float x
property float y
property float z
property float nx
property float ny
property float nz
property uchar red
property uchar green
property uchar blue
property uchar alpha
element face 44
property list uchar int vertex_indices
end_header
-92.9789 -72.5952 7.64262 0.119396 0.355081 -0.92718 192 192 192 255 
-94.0253 -60.6304 12.09 0.119396 0.355081 -0.92718 192 192 192 255 
-91.5461 -60.6518 12.4011 0.119396 0.355081 -0.92718 192 192 192 255 
-92.9789 -72.5952 7.64262 0.118939 0.355149 -0.927212 192 192 192 255 
-91.5461 -60.6518 12.4011 0.118939 0.355149 -0.927212 192 192 192 255 
-91.6781 -72.6065 7.80513 0.118939 0.355149 -0.927212 192 192 192 255 
-94.0253 -60.6304 12.09 0.355426 0.352819 -0.865558 192 192 192 255 
-92.9789 -72.5952 7.64262 0.355426 0.352819 -0.865558 192 192 192 255 
-94.1935 -72.5847 7.14814 0.355426 0.352819 -0.865558 192 192 192 255 
-94.0253 -60.6304 12.09 0.355557 0.352798 -0.865513 192 192 192 255 
-94.1935 -72.5847 7.14814 0.355557 0.352798 -0.865513 192 192 192 255 
-96.339 -60.6098 11.1479 0.355557 0.352798 -0.865513 192 192 192 255 
-96.339 -60.6098 11.1479 0.567839 0.350507 -0.744784 192 192 192 255 
-94.1935 -72.5847 7.14814 0.567839 0.350507 -0.744784 192 192 192 255 
-95.2386 -72.5757 6.35556 0.567839 0.350507 -0.744784 192 192 192 255 
-96.339 -60.6098 11.1479 0.567572 0.350555 -0.744965 192 192 192 255 
-95.2386 -72.5757 6.35556 0.567572 0.350555 -0.744965 192 192 192 255 
-98.3307 -60.5927 9.63854 0.567572 0.350555 -0.744965 192 192 192 255 
-98.3307 -60.5927 9.63854 0.741252 0.34845 -0.573696 192 192 192 255 
-95.2386 -72.5757 6.35556 0.741252 0.34845 -0.573696 192 192 192 255 
-96.0428 -72.5686 5.32073 0.741252 0.34845 -0.573696 192 192 192 255 
-98.3307 -60.5927 9.63854 0.741332 0.348432 -0.573604 192 192 192 255 
-96.0428 -72.5686 5.32073 0.741332 0.348432 -0.573604 192 192 192 255 
-99.8636 -60.5792 7.66556 0.741332 0.348432 -0.573604 192 192 192 255 
-99.8636 -60.5792 7.66556 0.864819 0.346639 -0.363221 192 192 192 255 
-96.0428 -72.5686 5.32073 0.864819 0.346639 -0.363221 192 192 192 255 
-96.5521 -72.5643 4.11241 0.864819 0.346639 -0.363221 192 192 192 255 
-99.8636 -60.5792 7.66556 0.864831 0.346635 -0.363195 192 192 192 255 
-96.5521 -72.5643 4.11241 0.864831 0.346635 -0.363195 192 192 192 255 
-100.834 -60.5707 5.3636 0.864831 0.346635 -0.363195 192 192 192 255 
-100.834 -60.5707 5.3636 0.929795 0.34525 -0.127608 192 192 192 255 
-96.5521 -72.5643 4.11241 0.929795 0.34525 -0.127608 192 192 192 255 
-96.731 -72.5625 2.8134 0.929795 0.34525 -0.127608 192 192 192 255 
-100.834 -60.5707 5.3636 0.929779 0.345262 -0.127689 192 192 192 255 
-96.731 -72.5625 2.8134 0.929779 0.345262 -0.127689 192 192 192 255 
-101.175 -60.568 2.88816 0.929779 0.345262 -0.127689 192 192 192 255 
-91.6781 -72.6065 7.80513 -0.124389 0.35725 -0.925689 192 192 192 255 
-91.5461 -60.6518 12.4011 -0.124389 0.35725 -0.925689 192 192 192 255 
-89.0711 -60.6735 12.0601 -0.124389 0.35725 -0.925689 192 192 192 255 
-91.6781 -72.6065 7.80513 -0.124066 0.357202 -0.925751 192 192 192 255 
-89.0711 -60.6735 12.0601 -0.124066 0.357202 -0.925751 192 192 192 255 
-90.3789 -72.6178 7.62668 -0.124066 0.357202 -0.925751 192 192 192 255 
-90.3789 -72.6178 7.62668 -0.359682 0.35905 -0.861227 192 192 192 255 
-89.0711 -60.6735 12.0601 -0.359682 0.35905 -0.861227 192 192 192 255 
-86.7687 -60.6938 11.0901 -0.359682 0.35905 -0.861227 192 192 192 255 
-90.3789 -72.6178 7.62668 -0.359948 0.359093 -0.861098 192 192 192 255 
-86.7687 -60.6938 11.0901 -0.359948 0.359093 -0.861098 192 192 192 255 
-89.1706 -72.6283 7.11724 -0.359948 0.359093 -0.861098 192 192 192 255 
-89.1706 -72.6283 7.11724 -0.570419 0.360482 -0.738021 192 192 192 255 
-86.7687 -60.6938 11.0901 -0.570419 0.360482 -0.738021 192 192 192 255 
-84.7956 -60.7108 9.55678 -0.570419 0.360482 -0.738021 192 192 192 255 
-89.1706 -72.6283 7.11724 -0.570424 0.360483 -0.738017 192 192 192 255 
-84.7956 -60.7108 9.55678 -0.570424 0.360483 -0.738017 192 192 192 255 
-88.1357 -72.6377 6.31269 -0.570424 0.360483 -0.738017 192 192 192 255 
-88.1357 -72.6377 6.31269 -0.742081 0.361374 -0.564557 192 192 192 255 
-84.7956 -60.7108 9.55678 -0.742081 0.361374 -0.564557 192 192 192 255 
-83.2865 -60.7238 7.56487 -0.742081 0.361374 -0.564557 192 192 192 255 
-88.1357 -72.6377 6.31269 -0.741997 0.361353 -0.564681 192 192 192 255 
-83.2865 -60.7238 7.56487 -0.741997 0.361353 -0.564681 192 192 192 255 
-87.344 -72.6448 5.26789 -0.741997 0.361353 -0.564681 192 192 192 255 
-87.344 -72.6448 5.26789 -0.863006 0.361695 -0.3527 192 192 192 255 
-83.2865 -60.7238 7.56487 -0.863006 0.361695 -0.3527 192 192 192 255 
-82.3444 -60.7322 5.25094 -0.863006 0.361695 -0.3527 192 192 192 255 
-87.344 -72.6448 5.26789 -0.862994 0.36169 -0.352733 192 192 192 255 
-82.3444 -60.7322 5.25094 -0.862994 0.36169 -0.352733 192 192 192 255 
-86.8493 -72.6487 4.0536 -0.862994 0.36169 -0.352733 192 192 192 255 
-86.8493 -72.6487 4.0536 -0.925115 0.361423 -0.116343 192 192 192 255 
-82.3444 -60.7322 5.25094 -0.925115 0.361423 -0.116343 192 192 192 255 
-82.0338 -60.7352 2.77152 -0.925115 0.361423 -0.116343 192 192 192 255 
-86.8493 -72.6487 4.0536 -0.925106 0.361406 -0.116467 192 192 192 255 
-82.0338 -60.7352 2.77152 -0.925106 0.361406 -0.116467 192 192 192 255 
-86.6861 -72.6502 2.75257 -0.925106 0.361406 -0.116467 192 192 192 255 
-95.9291 -72.5899 0.036875 0.008699 0.999962 -5.3e-005 192 192 192 255 
-86.7984 -72.6692 1.47947 0.008699 0.999962 -5.3e-005 192 192 192 255 
-87.4833 -72.6634 0.036875 0.008699 0.999962 -5.3e-005 192 192 192 255 
-86.7984 -72.6692 1.47947 0.008597 0.999963 0.000593 192 192 192 255 
-95.9291 -72.5899 0.036875 0.008597 0.999963 0.000593 192 192 192 255 
-96.1341 -72.5883 0.308049 0.008597 0.999963 0.000593 192 192 192 255 
-86.7984 -72.6692 1.47947 0.008733 0.999962 -0.000495 192 192 192 255 
-96.1341 -72.5883 0.308049 0.008733 0.999962 -0.000495 192 192 192 255 
-96.6348 -72.5833 1.53929 0.008733 0.999962 -0.000495 192 192 192 255 
-86.7984 -72.6692 1.47947 0.008741 0.999961 0.000732 192 192 192 255 
-96.6348 -72.5833 1.53929 0.008741 0.999961 0.000732 192 192 192 255 
-96.7391 -72.583 2.36775 0.008741 0.999961 0.000732 192 192 192 255 
-86.7984 -72.6692 1.47947 0.008688 0.999962 0.000143 192 192 192 255 
-96.7391 -72.583 2.36775 0.008688 0.999962 0.000143 192 192 192 255 
-86.6761 -72.6704 2.36775 0.008688 0.999962 0.000143 192 192 192 255 
-91.7089 -72.6068 2.78248 0.008808 0.999961 -4e-006 192 192 192 255 
-96.0428 -72.5686 5.32073 0.008808 0.999961 -4e-006 192 192 192 255 
-95.2386 -72.5757 6.35556 0.008808 0.999961 -4e-006 192 192 192 255 
-91.7089 -72.6068 2.78248 0.008682 0.999962 -0.000128 192 192 192 255 
-95.2386 -72.5757 6.35556 0.008682 0.999962 -0.000128 192 192 192 255 
-94.1935 -72.5847 7.14814 0.008682 0.999962 -0.000128 192 192 192 255 
-96.0428 -72.5686 5.32073 0.008772 0.999961 -6.6e-005 192 192 192 255 
-91.7089 -72.6068 2.78248 0.008772 0.999961 -6.6e-005 192 192 192 255 
-96.5521 -72.5643 4.11241 0.008772 0.999961 -6.6e-005 192 192 192 255 
-96.5521 -72.5643 4.11241 0.008835 0.999961 0.000163 192 192 192 255 
-91.7089 -72.6068 2.78248 0.008835 0.999961 0.000163 192 192 192 255 
-96.731 -72.5625 2.8134 0.008835 0.999961 0.000163 192 192 192 255 
-96.731 -72.5625 2.8134 0.008836 0.999961 0.00043 192 192 192 255 
-91.7089 -72.6068 2.78248 0.008836 0.999961 0.00043 192 192 192 255 
-96.6748 -72.5628 2.36775 0.008836 0.999961 0.00043 192 192 192 255 
-91.7089 -72.6068 2.78248 0.008677 0.999962 -0.000131 192 192 192 255 
-94.1935 -72.5847 7.14814 0.008677 0.999962 -0.000131 192 192 192 255 
-92.9789 -72.5952 7.64262 0.008677 0.999962 -0.000131 192 192 192 255 
-91.7089 -72.6068 2.78248 0.008747 0.999962 -0.000113 192 192 192 255 
-92.9789 -72.5952 7.64262 0.008747 0.999962 -0.000113 192 192 192 255 
-91.6781 -72.6065 7.80513 0.008747 0.999962 -0.000113 192 192 192 255 
-91.7089 -72.6068 2.78248 0.008658 0.999963 -0.000112 192 192 192 255 
-91.6781 -72.6065 7.80513 0.008658 0.999963 -0.000112 192 192 192 255 
-90.3789 -72.6178 7.62668 0.008658 0.999963 -0.000112 192 192 192 255 
-91.7089 -72.6068 2.78248 0.008614 0.999963 -0.0001 192 192 192 255 
-90.3789 -72.6178 7.62668 0.008614 0.999963 -0.0001 192 192 192 255 
-89.1706 -72.6283 7.11724 0.008614 0.999963 -0.0001 192 192 192 255 
-91.7089 -72.6068 2.78248 0.008933 0.99996 -0.000287 192 192 192 255 
-89.1706 -72.6283 7.11724 0.008933 0.99996 -0.000287 192 192 192 255 
-88.1357 -72.6377 6.31269 0.008933 0.99996 -0.000287 192 192 192 255 
-91.7089 -72.6068 2.78248 0.008775 0.999961 -0.000127 192 192 192 255 
-88.1357 -72.6377 6.31269 0.008775 0.999961 -0.000127 192 192 192 255 
-87.344 -72.6448 5.26789 0.008775 0.999961 -0.000127 192 192 192 255 
-91.7089 -72.6068 2.78248 0.008542 0.999963 0.000282 192 192 192 255 
-87.344 -72.6448 5.26789 0.008542 0.999963 0.000282 192 192 192 255 
-86.8493 -72.6487 4.0536 0.008542 0.999963 0.000282 192 192 192 255 
-96.6748 -72.5628 2.36775 0.008651 0.999959 0.00265 192 192 192 255 
-91.7089 -72.6068 2.78248 0.008651 0.999959 0.00265 192 192 192 255 
-86.6861 -72.6502 2.75257 0.008651 0.999959 0.00265 192 192 192 255 
-91.7089 -72.6068 2.78248 0.008635 0.999963 -7.2e-005 192 192 192 255 
-86.8493 -72.6487 4.0536 0.008635 0.999963 -7.2e-005 192 192 192 255 
-86.6861 -72.6502 2.75257 0.008635 0.999963 -7.2e-005 192 192 192 255 
-96.6748 -72.5628 2.36775 0.008769 0.999961 -0.000418 192 192 192 255 
-86.6861 -72.6502 2.75257 0.008769 0.999961 -0.000418 192 192 192 255 
-86.7393 -72.6499 2.36775 0.008769 0.999961 -0.000418 192 192 192 255 
3 0 1 2 
3 3 4 5 
3 6 7 8 
3 9 10 11 
3 12 13 14 
3 15 16 17 
3 18 19 20 
3 21 22 23 
3 24 25 26 
3 27 28 29 
3 30 31 32 
3 33 34 35 
3 36 37 38 
3 39 40 41 
3 42 43 44 
3 45 46 47 
3 48 49 50 
3 51 52 53 
3 54 55 56 
3 57 58 59 
3 60 61 62 
3 63 64 65 
3 66 67 68 
3 69 70 71 
3 72 73 74 
3 75 76 77 
3 78 79 80 
3 81 82 83 
3 84 85 86 
3 87 88 89 
3 90 91 92 
3 93 94 95 
3 96 97 98 
3 99 100 101 
3 102 103 104 
3 105 106 107 
3 108 109 110 
3 111 112 113 
3 114 115 116 
3 117 118 119 
3 120 121 122 
3 123 124 125 
3 126 127 128 
3 129 130 131 
