ply
format ascii 1.0
comment VCGLIB generated
element vertex 68
property float x
property float y
property float z
property float nx
property float ny
property float nz
property uchar red
property uchar green
property uchar blue
property uchar alpha
element face 24
property list uchar int vertex_indices
end_header
-65.2485 102.889 -7.1165 -0.654135 0.930188 0 192 192 192 255 
-65.2485 102.889 1.04551 -0.903575 1.28489 0 192 192 192 255 
-50.8293 113.029 1.04551 -0.249439 0.354706 0 192 192 192 255 
5.03452 127.287 1.06051 -0.155915 1.28741 0 192 192 192 255 
5.03452 127.287 -7.11649 -0.188856 1.5594 0 192 192 192 255 
-23.8488 123.789 -7.1165 -0.0329408 0.271995 0 192 192 192 255 
5.03452 127.287 1.06051 -0.0328789 0.271485 0 192 192 192 255 
-23.8488 123.789 -7.1165 -0.155915 1.28741 0 192 192 192 255 
-23.8488 123.789 1.04551 -0.188918 1.55991 0 192 192 192 255 
5.03452 127.287 -7.11649 0.178451 1.28495 0 192 192 192 255 
5.03452 127.287 1.06051 0.216005 1.55535 0 192 192 192 255 
33.8511 123.285 1.04551 0.0376953 0.271427 0 192 192 192 255 
5.03452 127.287 -7.11649 0.0376243 0.270916 4.5697e-007 192 192 192 255 
33.8511 123.285 1.04551 0.178453 1.28496 2.16741e-006 192 192 192 255 
33.8512 123.285 -7.1165 0.216073 1.55585 2.62434e-006 192 192 192 255 
33.8512 123.285 -7.1165 0.501355 1.19604 6.0923e-006 192 192 192 255 
33.8511 123.285 1.04551 0.607246 1.44866 7.37905e-006 192 192 192 255 
60.6393 112.056 1.04551 0.1059 0.252637 1.28686e-006 192 192 192 255 
33.8512 123.285 -7.1165 0.1059 0.252637 0 192 192 192 255 
60.6393 112.056 1.04551 0.501352 1.19603 0 192 192 192 255 
60.6393 112.056 -7.1165 0.607252 1.44867 0 192 192 192 255 
-23.8488 123.789 1.04551 -0.581878 1.45905 0 192 192 192 255 
-23.8488 123.789 -7.1165 -0.581878 1.45905 0 192 192 192 255 
-50.8293 113.029 -7.1165 -0.581878 1.45905 0 192 192 192 255 
-50.8293 113.029 1.04551 -0.581878 1.45905 0 192 192 192 255 
60.6393 112.056 -7.1165 0.669193 0.917397 0 192 192 192 255 
60.6393 112.056 1.04551 0.925702 1.26905 0 192 192 192 255 
74.8199 101.712 1.0455 0.25651 0.35165 0 192 192 192 255 
60.6393 112.056 -7.1165 0.25651 0.351649 0 192 192 192 255 
74.8199 101.712 1.0455 0.669193 0.917397 0 192 192 192 255 
74.8199 101.712 -7.1165 0.925702 1.26905 0 192 192 192 255 
-50.8293 113.029 1.04551 -0.654135 0.930188 0 192 192 192 255 
-50.8293 113.029 -7.1165 -0.903575 1.28489 0 192 192 192 255 
-65.2485 102.889 -7.1165 -0.249439 0.354706 0 192 192 192 255 
-65.2485 102.889 -7.1165 0.654135 -0.930188 0 192 192 192 255 
-65.2485 102.889 1.04551 0.903575 -1.28489 0 192 192 192 255 
-50.8293 113.029 1.04551 0.249439 -0.354706 0 192 192 192 255 
5.03452 127.287 1.06051 0.155915 -1.28741 0 192 192 192 255 
5.03452 127.287 -7.11649 0.188856 -1.5594 0 192 192 192 255 
-23.8488 123.789 -7.1165 0.0329408 -0.271995 0 192 192 192 255 
5.03452 127.287 1.06051 0.0328789 -0.271485 0 192 192 192 255 
-23.8488 123.789 -7.1165 0.155915 -1.28741 0 192 192 192 255 
-23.8488 123.789 1.04551 0.188918 -1.55991 0 192 192 192 255 
5.03452 127.287 -7.11649 -0.178451 -1.28495 0 192 192 192 255 
5.03452 127.287 1.06051 -0.216005 -1.55535 0 192 192 192 255 
33.8511 123.285 1.04551 -0.0376953 -0.271427 0 192 192 192 255 
5.03452 127.287 -7.11649 -0.0376243 -0.270916 -4.57198e-007 192 192 192 255 
33.8511 123.285 1.04551 -0.178452 -1.28496 -2.1685e-006 192 192 192 255 
33.8512 123.285 -7.1165 -0.216073 -1.55585 -2.62565e-006 192 192 192 255 
33.8512 123.285 -7.1165 -0.501355 -1.19604 -6.0923e-006 192 192 192 255 
33.8511 123.285 1.04551 -0.607246 -1.44866 -7.37905e-006 192 192 192 255 
60.6393 112.056 1.04551 -0.1059 -0.252637 -1.28686e-006 192 192 192 255 
33.8512 123.285 -7.1165 -0.1059 -0.252637 0 192 192 192 255 
60.6393 112.056 1.04551 -0.501352 -1.19603 0 192 192 192 255 
60.6393 112.056 -7.1165 -0.607252 -1.44867 0 192 192 192 255 
-23.8488 123.789 1.04551 0.581878 -1.45905 0 192 192 192 255 
-23.8488 123.789 -7.1165 0.581878 -1.45905 0 192 192 192 255 
-50.8293 113.029 -7.1165 0.581878 -1.45905 0 192 192 192 255 
-50.8293 113.029 1.04551 0.581878 -1.45905 0 192 192 192 255 
60.6393 112.056 -7.1165 -0.669193 -0.917397 0 192 192 192 255 
60.6393 112.056 1.04551 -0.925702 -1.26905 0 192 192 192 255 
74.8199 101.712 1.0455 -0.25651 -0.35165 0 192 192 192 255 
60.6393 112.056 -7.1165 -0.25651 -0.351649 0 192 192 192 255 
74.8199 101.712 1.0455 -0.669193 -0.917397 0 192 192 192 255 
74.8199 101.712 -7.1165 -0.925702 -1.26905 0 192 192 192 255 
-50.8293 113.029 1.04551 0.654135 -0.930188 0 192 192 192 255 
-50.8293 113.029 -7.1165 0.903575 -1.28489 0 192 192 192 255 
-65.2485 102.889 -7.1165 0.249439 -0.354706 0 192 192 192 255 
3 0 1 2 
3 3 4 5 
3 6 7 8 
3 9 10 11 
3 12 13 14 
3 15 16 17 
3 18 19 20 
3 21 22 23 
3 21 23 24 
3 25 26 27 
3 28 29 30 
3 31 32 33 
3 35 34 36 
3 38 37 39 
3 41 40 42 
3 44 43 45 
3 47 46 48 
3 50 49 51 
3 53 52 54 
3 56 55 57 
3 57 55 58 
3 60 59 61 
3 63 62 64 
3 66 65 67 
