ply
format ascii 1.0
comment VCGLIB generated
element vertex 261
property float x
property float y
property float z
property float nx
property float ny
property float nz
property uchar red
property uchar green
property uchar blue
property uchar alpha
element face 87
property list uchar int vertex_indices
end_header
-92.9789 -72.5952 7.64262 0.0231866 0.0689479 -0.180035 192 192 192 255 
-94.0253 -60.6304 12.09 0.182095 0.54148 -1.4139 192 192 192 255 
-91.5461 -60.6518 12.4011 0.169857 0.50509 -1.31888 192 192 192 255 
-92.9789 -72.5952 7.64262 0.169193 0.50528 -1.31916 192 192 192 255 
-91.5461 -60.6518 12.4011 0.0120592 0.0360139 -0.094023 192 192 192 255 
-91.6781 -72.6065 7.80513 0.192355 0.574451 -1.49974 192 192 192 255 
-94.0253 -60.6304 12.09 0.0360524 0.0357874 -0.0877963 192 192 192 255 
-92.9789 -72.5952 7.64262 0.575298 0.571069 -1.40099 192 192 192 255 
-94.1935 -72.5847 7.14814 0.505266 0.501552 -1.23044 192 192 192 255 
-94.0253 -60.6304 12.09 0.505529 0.501594 -1.23056 192 192 192 255 
-94.1935 -72.5847 7.14814 0.0690271 0.0684898 -0.168025 192 192 192 255 
-96.339 -60.6098 11.1479 0.54248 0.538258 -1.3205 192 192 192 255 
-96.339 -60.6098 11.1479 0.0576045 0.0355568 -0.0755541 192 192 192 255 
-94.1935 -72.5847 7.14814 0.919698 0.567689 -1.20628 192 192 192 255 
-95.2386 -72.5757 6.35556 0.806628 0.497896 -1.05797 192 192 192 255 
-96.339 -60.6098 11.1479 0.806291 0.498003 -1.05832 192 192 192 255 
-95.2386 -72.5757 6.35556 0.110225 0.0680802 -0.144679 192 192 192 255 
-98.3307 -60.5927 9.63854 0.866541 0.535216 -1.1374 192 192 192 255 
-98.3307 -60.5927 9.63854 0.0751475 0.0353245 -0.0581573 192 192 192 255 
-95.2386 -72.5757 6.35556 1.20087 0.564492 -0.929365 192 192 192 255 
-96.0428 -72.5686 5.32073 1.05275 0.494864 -0.814732 192 192 192 255 
-98.3307 -60.5927 9.63854 1.05281 0.494825 -0.81459 192 192 192 255 
-96.0428 -72.5686 5.32073 0.14397 0.0676666 -0.111394 192 192 192 255 
-99.8636 -60.5792 7.66556 1.1322 0.53214 -0.87602 192 192 192 255 
-99.8636 -60.5792 7.66556 0.0877308 0.0351657 -0.0368528 192 192 192 255 
-96.0428 -72.5686 5.32073 1.4015 0.561772 -0.588723 192 192 192 255 
-96.5521 -72.5643 4.11241 1.22761 0.49207 -0.515677 192 192 192 255 
-99.8636 -60.5792 7.66556 1.22772 0.492116 -0.515731 192 192 192 255 
-96.5521 -72.5643 4.11241 0.167958 0.067324 -0.0705547 192 192 192 255 
-100.834 -60.5707 5.3636 1.32116 0.529569 -0.554982 192 192 192 255 
-100.834 -60.5707 5.3636 0.09435 0.0350349 -0.0129455 192 192 192 255 
-96.5521 -72.5643 4.11241 1.50696 0.559577 -0.206765 192 192 192 255 
-96.731 -72.5625 2.8134 1.31973 0.490055 -0.181076 192 192 192 255 
-100.834 -60.5707 5.3636 1.31945 0.489991 -0.181226 192 192 192 255 
-96.731 -72.5625 2.8134 0.18068 0.0670973 -0.0248164 192 192 192 255 
-101.175 -60.568 2.88816 1.42083 0.527638 -0.19515 192 192 192 255 
-91.6781 -72.6065 7.80513 -0.0241562 0.069368 -0.179741 192 192 192 255 
-91.5461 -60.6518 12.4011 -0.189584 0.54442 -1.41066 192 192 192 255 
-89.0711 -60.6735 12.0601 -0.177095 0.508554 -1.31773 192 192 192 255 
-91.6781 -72.6065 7.80513 -0.176559 0.508401 -1.31763 192 192 192 255 
-89.0711 -60.6735 12.0601 -0.0125859 0.0362411 -0.0939263 192 192 192 255 
-90.3789 -72.6178 7.62668 -0.200567 0.577531 -1.49679 192 192 192 255 
-90.3789 -72.6178 7.62668 -0.0698527 0.0697319 -0.167263 192 192 192 255 
-89.0711 -60.6735 12.0601 -0.547745 0.546797 -1.31158 192 192 192 255 
-86.7687 -60.6938 11.0901 -0.512341 0.511455 -1.2268 192 192 192 255 
-90.3789 -72.6178 7.62668 -0.512714 0.511512 -1.22661 192 192 192 255 
-86.7687 -60.6938 11.0901 -0.0365272 0.0364416 -0.0873872 192 192 192 255 
-89.1706 -72.6283 7.11724 -0.581527 0.580164 -1.39124 192 192 192 255 
-89.1706 -72.6283 7.11724 -0.110829 0.0700387 -0.143392 192 192 192 255 
-86.7687 -60.6938 11.0901 -0.868278 0.548713 -1.1234 192 192 192 255 
-84.7956 -60.7108 9.55678 -0.812921 0.51373 -1.05177 192 192 192 255 
-89.1706 -72.6283 7.11724 -0.813202 0.513886 -1.05204 192 192 192 255 
-84.7956 -60.7108 9.55678 -0.0578897 0.0365823 -0.0748918 192 192 192 255 
-88.1357 -72.6377 6.31269 -0.921038 0.582032 -1.19154 192 192 192 255 
-88.1357 -72.6377 6.31269 -0.144226 0.0702354 -0.109726 192 192 192 255 
-84.7956 -60.7108 9.55678 -1.12907 0.549836 -0.85899 192 192 192 255 
-83.2865 -60.7238 7.56487 -1.058 0.515225 -0.804918 192 192 192 255 
-88.1357 -72.6377 6.31269 -1.058 0.515254 -0.805193 192 192 192 255 
-83.2865 -60.7238 7.56487 -0.0753207 0.0366818 -0.0573232 192 192 192 255 
-87.344 -72.6448 5.26789 -1.1977 0.583293 -0.911519 192 192 192 255 
-87.344 -72.6448 5.26789 -0.167741 0.0703017 -0.0685498 192 192 192 255 
-83.2865 -60.7238 7.56487 -1.31262 0.550131 -0.536422 192 192 192 255 
-82.3444 -60.7322 5.25094 -1.23087 0.51587 -0.503014 192 192 192 255 
-87.344 -72.6448 5.26789 -1.23046 0.515696 -0.502948 192 192 192 255 
-82.3444 -60.7322 5.25094 -0.0876558 0.0367373 -0.0358292 192 192 192 255 
-86.8493 -72.6487 4.0536 -1.39305 0.58384 -0.569408 192 192 192 255 
-86.8493 -72.6487 4.0536 -0.179916 0.0702885 -0.0226234 192 192 192 255 
-82.3444 -60.7322 5.25094 -1.40671 0.549563 -0.176885 192 192 192 255 
-82.0338 -60.7352 2.77152 -1.31972 0.515579 -0.165947 192 192 192 255 
-86.8493 -72.6487 4.0536 -1.3196 0.515513 -0.166126 192 192 192 255 
-82.0338 -60.7352 2.77152 -0.0940087 0.0367252 -0.0118348 192 192 192 255 
-86.6861 -72.6502 2.75257 -1.4927 0.583135 -0.187917 192 192 192 255 
-95.9291 -72.5899 0.036875 0.0013636 0.156687 -1.76117e-005 192 192 192 255 
-86.7984 -72.6692 1.47947 0.00844856 0.970794 -0.000109118 192 192 192 255 
-87.4833 -72.6634 0.036875 0.0175273 2.01399 -0.000226374 192 192 192 255 
-86.7984 -72.6692 1.47947 0.000273704 0.0318696 1.95157e-005 192 192 192 255 
-95.9291 -72.5899 0.036875 0.0177034 2.06136 0.00126229 192 192 192 255 
-96.1341 -72.5883 0.308049 0.00900259 1.04825 0.000641904 192 192 192 255 
-86.7984 -72.6692 1.47947 0.00114269 0.130897 -6.73935e-005 192 192 192 255 
-96.1341 -72.5883 0.308049 0.0159942 1.83216 -0.000943307 192 192 192 255 
-96.6348 -72.5833 1.53929 0.0102872 1.17841 -0.000606719 192 192 192 255 
-86.7984 -72.6692 1.47947 0.000725495 0.0830342 6.15095e-005 192 192 192 255 
-96.6348 -72.5833 1.53929 0.0148712 1.70204 0.00126083 192 192 192 255 
-96.7391 -72.583 2.36775 0.0118513 1.3564 0.00100478 192 192 192 255 
-86.7984 -72.6692 1.47947 0.014057 1.61844 0.000260933 192 192 192 255 
-96.7391 -72.583 2.36775 0.00077401 0.089115 1.43675e-005 192 192 192 255 
-86.6761 -72.6704 2.36775 0.0124543 1.43392 0.000231182 192 192 192 255 
-91.7089 -72.6068 2.78248 0.00230686 0.261674 1.43934e-006 192 192 192 255 
-96.0428 -72.5686 5.32073 0.0126937 1.43988 7.92008e-006 192 192 192 255 
-95.2386 -72.5757 6.35556 0.012694 1.43991 7.92026e-006 192 192 192 255 
-91.7089 -72.6068 2.78248 0.00227784 0.261877 -2.89979e-005 192 192 192 255 
-95.2386 -72.5757 6.35556 0.0125275 1.44025 -0.00015948 192 192 192 255 
-94.1935 -72.5847 7.14814 0.0125196 1.43934 -0.00015938 192 192 192 255 
-96.0428 -72.5686 5.32073 0.0125851 1.43985 -0.000177051 192 192 192 255 
-91.7089 -72.6068 2.78248 0.00228836 0.26181 -3.21934e-005 192 192 192 255 
-96.5521 -72.5643 4.11241 0.0125847 1.43981 -0.000177046 192 192 192 255 
-96.5521 -72.5643 4.11241 0.0126994 1.43963 0.000246462 192 192 192 255 
-91.7089 -72.6068 2.78248 0.00230955 0.261815 4.48224e-005 192 192 192 255 
-96.731 -72.5625 2.8134 0.012703 1.44003 0.000246531 192 192 192 255 
-96.731 -72.5625 2.8134 0.0126974 1.43912 0.000640549 192 192 192 255 
-91.7089 -72.6068 2.78248 0.00078941 0.0894718 3.98236e-005 192 192 192 255 
-96.6748 -72.5628 2.36775 0.0142304 1.61287 0.000717884 192 192 192 255 
-91.7089 -72.6068 2.78248 0.00227516 0.26181 -3.01787e-005 192 192 192 255 
-94.1935 -72.5847 7.14814 0.0125132 1.43993 -0.00016598 192 192 192 255 
-92.9789 -72.5952 7.64262 0.0125115 1.43973 -0.000165958 192 192 192 255 
-91.7089 -72.6068 2.78248 0.00227711 0.261725 -2.94685e-005 192 192 192 255 
-92.9789 -72.5952 7.64262 0.0125235 1.43942 -0.000162069 192 192 192 255 
-91.6781 -72.6065 7.80513 0.0125314 1.44033 -0.000162171 192 192 192 255 
-91.7089 -72.6068 2.78248 0.002273 0.26182 -2.94489e-005 192 192 192 255 
-91.6781 -72.6065 7.80513 0.0125047 1.44038 -0.000162011 192 192 192 255 
-90.3789 -72.6178 7.62668 0.0124951 1.43927 -0.000161886 192 192 192 255 
-91.7089 -72.6068 2.78248 0.00226463 0.261785 -2.72326e-005 192 192 192 255 
-90.3789 -72.6178 7.62668 0.0124546 1.43972 -0.000149769 192 192 192 255 
-89.1706 -72.6283 7.11724 0.0124569 1.43998 -0.000149796 192 192 192 255 
-91.7089 -72.6068 2.78248 0.00232701 0.261703 -6.4163e-005 192 192 192 255 
-89.1706 -72.6283 7.11724 0.0128015 1.4397 -0.000352978 192 192 192 255 
-88.1357 -72.6377 6.31269 0.0128048 1.44007 -0.000353068 192 192 192 255 
-91.7089 -72.6068 2.78248 0.00229872 0.261711 -3.54565e-005 192 192 192 255 
-88.1357 -72.6377 6.31269 0.012647 1.43987 -0.000195074 192 192 192 255 
-87.344 -72.6448 5.26789 0.0126471 1.43989 -0.000195075 192 192 192 255 
-91.7089 -72.6068 2.78248 0.00223833 0.261768 7.14659e-005 192 192 192 255 
-87.344 -72.6448 5.26789 0.0123134 1.44002 0.000393143 192 192 192 255 
-86.8493 -72.6487 4.0536 0.0123105 1.43969 0.000393053 192 192 192 255 
-96.6748 -72.5628 2.36775 0.000387889 0.0448122 0.00010962 192 192 192 255 
-91.7089 -72.6068 2.78248 0.0264194 3.0522 0.00746629 192 192 192 255 
-86.6861 -72.6502 2.75257 0.000384825 0.0444583 0.000108754 192 192 192 255 
-91.7089 -72.6068 2.78248 0.00226194 0.261772 -1.8671e-005 192 192 192 255 
-86.8493 -72.6487 4.0536 0.0124404 1.43971 -0.000102688 192 192 192 255 
-86.6861 -72.6502 2.75257 0.0124428 1.44 -0.000102708 192 192 192 255 
-96.6748 -72.5628 2.36775 0.000337552 0.0385024 -1.69014e-005 192 192 192 255 
-86.6861 -72.6502 2.75257 0.0122286 1.39484 -0.000612294 192 192 192 255 
-86.7393 -72.6499 2.36775 0.0149752 1.70813 -0.000749816 192 192 192 255 
-92.9551 -72.5953 7.53349 -0.0228032 -0.0687706 0.176876 192 192 192 255 
-91.5297 -60.2595 12.5135 -0.170137 -0.513104 1.31969 192 192 192 255 
-94.0543 -60.2377 12.1965 -0.181855 -0.548444 1.41058 192 192 192 255 
-91.5297 -60.2595 12.5135 -0.0116218 -0.0349245 0.0898366 192 192 192 255 
-92.9551 -72.5953 7.53349 -0.170776 -0.513195 1.3201 192 192 192 255 
-91.667 -72.6072 7.6955 -0.193677 -0.582015 1.49712 192 192 192 255 
-92.9551 -72.5953 7.53349 -0.574363 -0.57909 1.39927 192 192 192 255 
-94.0543 -60.2377 12.1965 -0.0344558 -0.0347393 0.0839416 192 192 192 255 
-94.1587 -72.5855 7.0435 -0.505272 -0.50943 1.23095 192 192 192 255 
-94.1587 -72.5855 7.0435 -0.0677883 -0.0683314 0.165112 192 192 192 255 
-94.0543 -60.2377 12.1965 -0.505569 -0.50962 1.23141 192 192 192 255 
-96.4109 -60.2171 11.2375 -0.540942 -0.545276 1.31757 192 192 192 255 
-94.1587 -72.5855 7.0435 -0.917702 -0.575453 1.20424 192 192 192 255 
-96.4109 -60.2171 11.2375 -0.0549962 -0.0344858 0.0721679 192 192 192 255 
-95.1934 -72.5761 6.25949 -0.807259 -0.506198 1.05931 192 192 192 255 
-95.1934 -72.5761 6.25949 -0.108311 -0.0679145 0.142122 192 192 192 255 
-96.4109 -60.2171 11.2375 -0.807108 -0.506082 1.05906 192 192 192 255 
-98.4388 -60.1994 9.7005 -0.864598 -0.54213 1.1345 192 192 192 255 
-95.1934 -72.5761 6.25949 -1.19926 -0.572406 0.927759 192 192 192 255 
-98.4388 -60.1994 9.7005 -0.0718881 -0.0343122 0.0556134 192 192 192 255 
-95.9904 -72.5692 5.23351 -1.05354 -0.502857 0.815034 192 192 192 255 
-95.9904 -72.5692 5.23351 -0.141441 -0.0675207 0.10945 192 192 192 255 
-98.4388 -60.1994 9.7005 -1.05349 -0.502911 0.815214 192 192 192 255 
-99.9999 -60.1858 7.6915 -1.1295 -0.539199 0.874037 192 192 192 255 
-95.9904 -72.5692 5.23351 -1.39906 -0.569721 0.588101 192 192 192 255 
-99.9999 -60.1858 7.6915 -0.08379 -0.0341207 0.0352215 192 192 192 255 
-96.4949 -72.5649 4.03749 -1.22852 -0.500274 0.516414 192 192 192 255 
-96.4949 -72.5649 4.03749 -0.165083 -0.0672043 0.069325 192 192 192 255 
-99.9999 -60.1858 7.6915 -1.22854 -0.50013 0.515913 192 192 192 255 
-100.988 -60.1776 5.3465 -1.3182 -0.536633 0.553567 192 192 192 255 
-96.4949 -72.5649 4.03749 -1.50472 -0.567645 0.206835 192 192 192 255 
-100.988 -60.1776 5.3465 -0.0901948 -0.0340254 0.012398 192 192 192 255 
-96.6723 -72.5636 2.7505 -1.32047 -0.498137 0.181508 192 192 192 255 
-96.6723 -72.5636 2.7505 -0.177466 -0.0669544 0.0244247 192 192 192 255 
-100.988 -60.1776 5.3465 -1.32069 -0.49827 0.181767 192 192 192 255 
-101.336 -60.1745 2.82649 -1.41713 -0.534653 0.195039 192 192 192 255 
-91.5297 -60.2595 12.5135 0.1889 -0.551271 1.40743 192 192 192 255 
-91.667 -72.6072 7.6955 0.0237008 -0.0691666 0.176587 192 192 192 255 
-89.0094 -60.2818 12.1665 0.176979 -0.516482 1.31861 192 192 192 255 
-89.0094 -60.2818 12.1665 0.0120533 -0.0351591 0.08976 192 192 192 255 
-91.667 -72.6072 7.6955 0.176998 -0.516298 1.31809 192 192 192 255 
-90.3801 -72.6179 7.5185 0.200719 -0.585491 1.49474 192 192 192 255 
-89.0094 -60.2818 12.1665 0.546526 -0.553721 1.30844 192 192 192 255 
-90.3801 -72.6179 7.5185 0.0686317 -0.0695351 0.164311 192 192 192 255 
-86.6651 -60.3026 11.1785 0.512736 -0.519486 1.22754 192 192 192 255 
-86.6651 -60.3026 11.1785 0.0349238 -0.0353529 0.083508 192 192 192 255 
-90.3801 -72.6179 7.5185 0.513346 -0.519653 1.22749 192 192 192 255 
-89.1834 -72.6286 7.0135 0.580784 -0.587919 1.38874 192 192 192 255 
-86.6651 -60.3026 11.1785 0.866353 -0.555644 1.12056 192 192 192 255 
-89.1834 -72.6286 7.0135 0.10891 -0.0698508 0.140867 192 192 192 255 
-84.656 -60.3201 9.6165 0.813582 -0.521799 1.0523 192 192 192 255 
-84.656 -60.3201 9.6165 0.0553254 -0.0354909 0.0715939 192 192 192 255 
-89.1834 -72.6286 7.0135 0.81347 -0.521835 1.05267 192 192 192 255 
-88.158 -72.6379 6.21649 0.919529 -0.589871 1.18992 192 192 192 255 
-84.656 -60.3201 9.6165 1.12646 -0.556878 0.857245 192 192 192 255 
-88.158 -72.6379 6.21649 0.141658 -0.0700301 0.107803 192 192 192 255 
-83.1191 -60.3331 7.5885 1.05833 -0.523198 0.805399 192 192 192 255 
-83.1191 -60.3331 7.5885 0.0719856 -0.0355874 0.054787 192 192 192 255 
-88.158 -72.6379 6.21649 1.05832 -0.523202 0.805471 192 192 192 255 
-87.3736 -72.6446 5.1815 1.19607 -0.591297 0.910304 192 192 192 255 
-83.1191 -60.3331 7.5885 1.30953 -0.557179 0.535242 192 192 192 255 
-87.3736 -72.6446 5.1815 0.16476 -0.0701024 0.0673423 192 192 192 255 
-82.1598 -60.3417 5.2325 1.23147 -0.523969 0.503339 192 192 192 255 
-82.1598 -60.3417 5.2325 0.083779 -0.0356464 0.0342467 192 192 192 255 
-87.3736 -72.6446 5.1815 1.23109 -0.523806 0.50324 192 192 192 255 
-86.8835 -72.6485 3.9785 1.39086 -0.591782 0.568546 192 192 192 255 
-82.1598 -60.3417 5.2325 1.40339 -0.556653 0.176591 192 192 192 255 
-86.8835 -72.6485 3.9785 0.176753 -0.070109 0.0222412 192 192 192 255 
-81.8433 -60.3448 2.7075 1.32034 -0.523715 0.166142 192 192 192 255 
-81.8433 -60.3448 2.7075 0.0898552 -0.035641 0.0113079 192 192 192 255 
-86.8835 -72.6485 3.9785 1.32013 -0.523627 0.166132 192 192 192 255 
-86.7218 -72.6498 2.6895 1.4905 -0.591204 0.187573 192 192 192 255 
-91.697 -72.6067 2.7205 -0.0169642 -1.93675 0.000163321 192 192 192 255 
-95.7655 -72.5713 -0.07851 -0.00527793 -0.602566 5.08126e-005 192 192 192 255 
-87.6249 -72.6426 -0.07851 -0.00527432 -0.602153 5.07778e-005 192 192 192 255 
-91.697 -72.6067 2.7205 -0.000599144 -0.0724635 5.78598e-005 192 192 192 255 
-87.6249 -72.6426 -0.07851 -0.0134673 -1.62881 0.00130055 192 192 192 255 
-87.4036 -72.6442 0.206494 -0.011908 -1.44022 0.00114997 192 192 192 255 
-95.7655 -72.5713 -0.07851 -0.014874 -1.6161 0.00118054 192 192 192 255 
-91.697 -72.6067 2.7205 -0.000781958 -0.0849618 6.20637e-005 192 192 192 255 
-96.0206 -72.5687 0.258496 -0.0132569 -1.4404 0.0010522 192 192 192 255 
-96.0206 -72.5687 0.258496 -0.0124324 -1.43992 -0.000388336 192 192 192 255 
-91.697 -72.6067 2.7205 -0.00226044 -0.261804 -7.06065e-005 192 192 192 255 
-96.5106 -72.5648 1.4615 -0.0124309 -1.43975 -0.000388289 192 192 192 255 
-96.5106 -72.5648 1.4615 -0.012473 -1.43973 -0.000226855 192 192 192 255 
-91.697 -72.6067 2.7205 -0.00226835 -0.261831 -4.1256e-005 192 192 192 255 
-96.6723 -72.5636 2.7505 -0.0124746 -1.43991 -0.000226883 192 192 192 255 
-91.697 -72.6067 2.7205 -0.00226552 -0.26181 3.68713e-005 192 192 192 255 
-87.4036 -72.6442 0.206494 -0.0124595 -1.43985 0.000202778 192 192 192 255 
-86.8992 -72.6484 1.4035 -0.0124592 -1.43982 0.000202773 192 192 192 255 
-96.6723 -72.5636 2.7505 -0.0124706 -1.43979 0.000259425 192 192 192 255 
-91.697 -72.6067 2.7205 -0.00226794 -0.261845 4.71799e-005 192 192 192 255 
-96.4949 -72.5649 4.03749 -0.012471 -1.43984 0.000259433 192 192 192 255 
-96.4949 -72.5649 4.03749 -0.0125094 -1.43944 0.000107093 192 192 192 255 
-91.697 -72.6067 2.7205 -0.00227379 -0.261643 1.9466e-005 192 192 192 255 
-95.9904 -72.5692 5.23351 -0.0125176 -1.44039 0.000107164 192 192 192 255 
-91.697 -72.6067 2.7205 -0.00226684 -0.261653 2.70793e-005 192 192 192 255 
-86.8992 -72.6484 1.4035 -0.0124749 -1.43993 0.000149023 192 192 192 255 
-86.7218 -72.6498 2.6895 -0.0124745 -1.43989 0.000149019 192 192 192 255 
-91.697 -72.6067 2.7205 -0.00226877 -0.261842 -1.95878e-005 192 192 192 255 
-86.7218 -72.6498 2.6895 -0.0124746 -1.43972 -0.000107702 192 192 192 255 
-86.8835 -72.6485 3.9785 -0.0124764 -1.43992 -0.000107717 192 192 192 255 
-95.9904 -72.5692 5.23351 -0.0125434 -1.43981 5.44251e-005 192 192 192 255 
-91.697 -72.6067 2.7205 -0.0022815 -0.261885 9.89927e-006 192 192 192 255 
-95.1934 -72.5761 6.25949 -0.0125431 -1.43977 5.44236e-005 192 192 192 255 
-95.1934 -72.5761 6.25949 -0.0128733 -1.43978 -0.000271781 192 192 192 255 
-91.697 -72.6067 2.7205 -0.00233981 -0.261689 -4.9398e-005 192 192 192 255 
-94.1587 -72.5855 7.0435 -0.0128753 -1.44 -0.000271823 192 192 192 255 
-94.1587 -72.5855 7.0435 -0.0118452 -1.43969 0.000313223 192 192 192 255 
-91.697 -72.6067 2.7205 -0.00215538 -0.261969 5.69947e-005 192 192 192 255 
-92.9551 -72.5953 7.53349 -0.0118464 -1.43983 0.000313253 192 192 192 255 
-92.9551 -72.5953 7.53349 -0.0132986 -1.44016 -6.55751e-005 192 192 192 255 
-91.697 -72.6067 2.7205 -0.00241663 -0.261706 -1.19163e-005 192 192 192 255 
-91.667 -72.6072 7.6955 -0.0132934 -1.43959 -6.55492e-005 192 192 192 255 
-91.667 -72.6072 7.6955 -0.0119799 -1.4401 -7.3521e-005 192 192 192 255 
-91.697 -72.6067 2.7205 -0.00217821 -0.261842 -1.33678e-005 192 192 192 255 
-90.3801 -72.6179 7.5185 -0.0119752 -1.43954 -7.34925e-005 192 192 192 255 
-90.3801 -72.6179 7.5185 -0.0128085 -1.43931 0.000155746 192 192 192 255 
-91.697 -72.6067 2.7205 -0.00232996 -0.261822 2.83313e-005 192 192 192 255 
-89.1834 -72.6286 7.0135 -0.0128176 -1.44033 0.000155856 192 192 192 255 
-89.1834 -72.6286 7.0135 -0.0128981 -1.43975 0.000206011 192 192 192 255 
-91.697 -72.6067 2.7205 -0.00234542 -0.261807 3.74615e-005 192 192 192 255 
-88.158 -72.6379 6.21649 -0.0128996 -1.43991 0.000206034 192 192 192 255 
-91.697 -72.6067 2.7205 -0.00225547 -0.261837 -7.03208e-005 192 192 192 255 
-86.8835 -72.6485 3.9785 -0.0123998 -1.43949 -0.000386599 192 192 192 255 
-87.3736 -72.6446 5.1815 -0.0124055 -1.44015 -0.000386777 192 192 192 255 
-88.158 -72.6379 6.21649 -0.012526 -1.44002 -0.000173169 192 192 192 255 
-91.697 -72.6067 2.7205 -0.00227713 -0.261786 -3.14809e-005 192 192 192 255 
-87.3736 -72.6446 5.1815 -0.0125229 -1.43967 -0.000173126 192 192 192 255 
3 0 1 2 
3 3 4 5 
3 6 7 8 
3 9 10 11 
3 12 13 14 
3 15 16 17 
3 18 19 20 
3 21 22 23 
3 24 25 26 
3 27 28 29 
3 30 31 32 
3 33 34 35 
3 36 37 38 
3 39 40 41 
3 42 43 44 
3 45 46 47 
3 48 49 50 
3 51 52 53 
3 54 55 56 
3 57 58 59 
3 60 61 62 
3 63 64 65 
3 66 67 68 
3 69 70 71 
3 72 73 74 
3 75 76 77 
3 78 79 80 
3 81 82 83 
3 84 85 86 
3 87 88 89 
3 90 91 92 
3 93 94 95 
3 96 97 98 
3 99 100 101 
3 102 103 104 
3 105 106 107 
3 108 109 110 
3 111 112 113 
3 114 115 116 
3 117 118 119 
3 120 121 122 
3 123 124 125 
3 126 127 128 
3 129 130 131 
3 132 133 134 
3 135 136 137 
3 138 139 140 
3 141 142 143 
3 144 145 146 
3 147 148 149 
3 150 151 152 
3 153 154 155 
3 156 157 158 
3 159 160 161 
3 162 163 164 
3 165 166 167 
3 168 169 170 
3 171 172 173 
3 174 175 176 
3 177 178 179 
3 180 181 182 
3 183 184 185 
3 186 187 188 
3 189 190 191 
3 192 193 194 
3 195 196 197 
3 198 199 200 
3 201 202 203 
3 204 205 206 
3 207 208 209 
3 210 211 212 
3 213 214 215 
3 216 217 218 
3 219 220 221 
3 222 223 224 
3 225 226 227 
3 228 229 230 
3 231 232 233 
3 234 235 236 
3 237 238 239 
3 240 241 242 
3 243 244 245 
3 246 247 248 
3 249 250 251 
3 252 253 254 
3 255 256 257 
3 258 259 260 
