ply
format ascii 1.0
comment VCGLIB generated
element vertex 129
property float x
property float y
property float z
property float nx
property float ny
property float nz
property uchar red
property uchar green
property uchar blue
property uchar alpha
element face 43
property list uchar int vertex_indices
end_header
-92.9551 -72.5953 7.53349 -0.119301 -0.359792 0.925374 192 192 192 255 
-91.5297 -60.2595 12.5135 -0.119301 -0.359792 0.925374 192 192 192 255 
-94.0543 -60.2377 12.1965 -0.119301 -0.359792 0.925374 192 192 192 255 
-91.5297 -60.2595 12.5135 -0.119706 -0.359733 0.925345 192 192 192 255 
-92.9551 -72.5953 7.53349 -0.119706 -0.359733 0.925345 192 192 192 255 
-91.667 -72.6072 7.6955 -0.119706 -0.359733 0.925345 192 192 192 255 
-92.9551 -72.5953 7.53349 -0.354628 -0.357544 0.863945 192 192 192 255 
-94.0543 -60.2377 12.1965 -0.354628 -0.357544 0.863945 192 192 192 255 
-94.1587 -72.5855 7.0435 -0.354628 -0.357544 0.863945 192 192 192 255 
-94.1587 -72.5855 7.0435 -0.354693 -0.357534 0.863923 192 192 192 255 
-94.0543 -60.2377 12.1965 -0.354693 -0.357534 0.863923 192 192 192 255 
-96.4109 -60.2171 11.2375 -0.354693 -0.357534 0.863923 192 192 192 255 
-94.1587 -72.5855 7.0435 -0.566578 -0.355277 0.743483 192 192 192 255 
-96.4109 -60.2171 11.2375 -0.566578 -0.355277 0.743483 192 192 192 255 
-95.1934 -72.5761 6.25949 -0.566578 -0.355277 0.743483 192 192 192 255 
-95.1934 -72.5761 6.25949 -0.566597 -0.355274 0.74347 192 192 192 255 
-96.4109 -60.2171 11.2375 -0.566597 -0.355274 0.74347 192 192 192 255 
-98.4388 -60.1994 9.7005 -0.566597 -0.355274 0.74347 192 192 192 255 
-95.1934 -72.5761 6.25949 -0.739971 -0.353189 0.572452 192 192 192 255 
-98.4388 -60.1994 9.7005 -0.739971 -0.353189 0.572452 192 192 192 255 
-95.9904 -72.5692 5.23351 -0.739971 -0.353189 0.572452 192 192 192 255 
-95.9904 -72.5692 5.23351 -0.73989 -0.353206 0.572545 192 192 192 255 
-98.4388 -60.1994 9.7005 -0.73989 -0.353206 0.572545 192 192 192 255 
-99.9999 -60.1858 7.6915 -0.73989 -0.353206 0.572545 192 192 192 255 
-95.9904 -72.5692 5.23351 -0.863057 -0.351451 0.362788 192 192 192 255 
-99.9999 -60.1858 7.6915 -0.863057 -0.351451 0.362788 192 192 192 255 
-96.4949 -72.5649 4.03749 -0.863057 -0.351451 0.362788 192 192 192 255 
-96.4949 -72.5649 4.03749 -0.8632 -0.351404 0.362493 192 192 192 255 
-99.9999 -60.1858 7.6915 -0.8632 -0.351404 0.362493 192 192 192 255 
-100.988 -60.1776 5.3465 -0.8632 -0.351404 0.362493 192 192 192 255 
-96.4949 -72.5649 4.03749 -0.927994 -0.35008 0.127562 192 192 192 255 
-100.988 -60.1776 5.3465 -0.927994 -0.35008 0.127562 192 192 192 255 
-96.6723 -72.5636 2.7505 -0.927994 -0.35008 0.127562 192 192 192 255 
-96.6723 -72.5636 2.7505 -0.927964 -0.350102 0.127716 192 192 192 255 
-100.988 -60.1776 5.3465 -0.927964 -0.350102 0.127716 192 192 192 255 
-101.336 -60.1745 2.82649 -0.927964 -0.350102 0.127716 192 192 192 255 
-91.5297 -60.2595 12.5135 0.124007 -0.361893 0.923935 192 192 192 255 
-91.667 -72.6072 7.6955 0.124007 -0.361893 0.923935 192 192 192 255 
-89.0094 -60.2818 12.1665 0.124007 -0.361893 0.923935 192 192 192 255 
-89.0094 -60.2818 12.1665 0.124066 -0.361902 0.923924 192 192 192 255 
-91.667 -72.6072 7.6955 0.124066 -0.361902 0.923924 192 192 192 255 
-90.3801 -72.6179 7.5185 0.124066 -0.361902 0.923924 192 192 192 255 
-89.0094 -60.2818 12.1665 0.35902 -0.363746 0.859531 192 192 192 255 
-90.3801 -72.6179 7.5185 0.35902 -0.363746 0.859531 192 192 192 255 
-86.6651 -60.3026 11.1785 0.35902 -0.363746 0.859531 192 192 192 255 
-86.6651 -60.3026 11.1785 0.359391 -0.363804 0.859351 192 192 192 255 
-90.3801 -72.6179 7.5185 0.359391 -0.363804 0.859351 192 192 192 255 
-89.1834 -72.6286 7.0135 0.359391 -0.363804 0.859351 192 192 192 255 
-86.6651 -60.3026 11.1785 0.569407 -0.365195 0.736484 192 192 192 255 
-89.1834 -72.6286 7.0135 0.569407 -0.365195 0.736484 192 192 192 255 
-84.656 -60.3201 9.6165 0.569407 -0.365195 0.736484 192 192 192 255 
-84.656 -60.3201 9.6165 0.569241 -0.365164 0.736627 192 192 192 255 
-89.1834 -72.6286 7.0135 0.569241 -0.365164 0.736627 192 192 192 255 
-88.158 -72.6379 6.21649 0.569241 -0.365164 0.736627 192 192 192 255 
-84.656 -60.3201 9.6165 0.740533 -0.36609 0.563551 192 192 192 255 
-88.158 -72.6379 6.21649 0.740533 -0.36609 0.563551 192 192 192 255 
-83.1191 -60.3331 7.5885 0.740533 -0.36609 0.563551 192 192 192 255 
-83.1191 -60.3331 7.5885 0.740508 -0.366084 0.563587 192 192 192 255 
-88.158 -72.6379 6.21649 0.740508 -0.366084 0.563587 192 192 192 255 
-87.3736 -72.6446 5.1815 0.740508 -0.366084 0.563587 192 192 192 255 
-83.1191 -60.3331 7.5885 0.861271 -0.366454 0.352027 192 192 192 255 
-87.3736 -72.6446 5.1815 0.861271 -0.366454 0.352027 192 192 192 255 
-82.1598 -60.3417 5.2325 0.861271 -0.366454 0.352027 192 192 192 255 
-82.1598 -60.3417 5.2325 0.861259 -0.366449 0.352063 192 192 192 255 
-87.3736 -72.6446 5.1815 0.861259 -0.366449 0.352063 192 192 192 255 
-86.8835 -72.6485 3.9785 0.861259 -0.366449 0.352063 192 192 192 255 
-82.1598 -60.3417 5.2325 0.923252 -0.366208 0.116175 192 192 192 255 
-86.8835 -72.6485 3.9785 0.923252 -0.366208 0.116175 192 192 192 255 
-81.8433 -60.3448 2.7075 0.923252 -0.366208 0.116175 192 192 192 255 
-81.8433 -60.3448 2.7075 0.923252 -0.366207 0.116185 192 192 192 255 
-86.8835 -72.6485 3.9785 0.923252 -0.366207 0.116185 192 192 192 255 
-86.7218 -72.6498 2.6895 0.923252 -0.366207 0.116185 192 192 192 255 
-91.697 -72.6067 2.7205 -0.008758 -0.999962 8.3e-005 192 192 192 255 
-95.7655 -72.5713 -0.07851 -0.008758 -0.999962 8.3e-005 192 192 192 255 
-87.6249 -72.6426 -0.07851 -0.008758 -0.999962 8.3e-005 192 192 192 255 
-91.697 -72.6067 2.7205 -0.008267 -0.999965 0.000798 192 192 192 255 
-87.6249 -72.6426 -0.07851 -0.008267 -0.999965 0.000798 192 192 192 255 
-87.4036 -72.6442 0.206494 -0.008267 -0.999965 0.000798 192 192 192 255 
-95.7655 -72.5713 -0.07851 -0.009213 -0.999957 0.000745 192 192 192 255 
-91.697 -72.6067 2.7205 -0.009213 -0.999957 0.000745 192 192 192 255 
-96.0206 -72.5687 0.258496 -0.009213 -0.999957 0.000745 192 192 192 255 
-96.0206 -72.5687 0.258496 -0.008632 -0.999963 -0.000275 192 192 192 255 
-91.697 -72.6067 2.7205 -0.008632 -0.999963 -0.000275 192 192 192 255 
-96.5106 -72.5648 1.4615 -0.008632 -0.999963 -0.000275 192 192 192 255 
-96.5106 -72.5648 1.4615 -0.008663 -0.999963 -0.000158 192 192 192 255 
-91.697 -72.6067 2.7205 -0.008663 -0.999963 -0.000158 192 192 192 255 
-96.6723 -72.5636 2.7505 -0.008663 -0.999963 -0.000158 192 192 192 255 
-91.697 -72.6067 2.7205 -0.008655 -0.999963 0.000135 192 192 192 255 
-87.4036 -72.6442 0.206494 -0.008655 -0.999963 0.000135 192 192 192 255 
-86.8992 -72.6484 1.4035 -0.008655 -0.999963 0.000135 192 192 192 255 
-96.6723 -72.5636 2.7505 -0.008661 -0.999963 0.000186 192 192 192 255 
-91.697 -72.6067 2.7205 -0.008661 -0.999963 0.000186 192 192 192 255 
-96.4949 -72.5649 4.03749 -0.008661 -0.999963 0.000186 192 192 192 255 
-96.4949 -72.5649 4.03749 -0.008693 -0.999962 6.9e-005 192 192 192 255 
-91.697 -72.6067 2.7205 -0.008693 -0.999962 6.9e-005 192 192 192 255 
-95.9904 -72.5692 5.23351 -0.008693 -0.999962 6.9e-005 192 192 192 255 
-91.697 -72.6067 2.7205 -0.008662 -0.999963 0.000109 192 192 192 255 
-86.8992 -72.6484 1.4035 -0.008662 -0.999963 0.000109 192 192 192 255 
-86.7218 -72.6498 2.6895 -0.008662 -0.999963 0.000109 192 192 192 255 
-91.697 -72.6067 2.7205 -0.008663 -0.999962 -8.1e-005 192 192 192 255 
-86.7218 -72.6498 2.6895 -0.008663 -0.999962 -8.1e-005 192 192 192 255 
-86.8835 -72.6485 3.9785 -0.008663 -0.999962 -8.1e-005 192 192 192 255 
-95.9904 -72.5692 5.23351 -0.008709 -0.999962 4.3e-005 192 192 192 255 
-91.697 -72.6067 2.7205 -0.008709 -0.999962 4.3e-005 192 192 192 255 
-95.1934 -72.5761 6.25949 -0.008709 -0.999962 4.3e-005 192 192 192 255 
-95.1934 -72.5761 6.25949 -0.008942 -0.99996 -0.000188 192 192 192 255 
-91.697 -72.6067 2.7205 -0.008942 -0.99996 -0.000188 192 192 192 255 
-94.1587 -72.5855 7.0435 -0.008942 -0.99996 -0.000188 192 192 192 255 
-94.1587 -72.5855 7.0435 -0.008233 -0.999966 0.000216 192 192 192 255 
-91.697 -72.6067 2.7205 -0.008233 -0.999966 0.000216 192 192 192 255 
-92.9551 -72.5953 7.53349 -0.008233 -0.999966 0.000216 192 192 192 255 
-92.9551 -72.5953 7.53349 -0.009228 -0.999958 -4.4e-005 192 192 192 255 
-91.697 -72.6067 2.7205 -0.009228 -0.999958 -4.4e-005 192 192 192 255 
-91.667 -72.6072 7.6955 -0.009228 -0.999958 -4.4e-005 192 192 192 255 
-91.667 -72.6072 7.6955 -0.008324 -0.999965 -4.9e-005 192 192 192 255 
-91.697 -72.6067 2.7205 -0.008324 -0.999965 -4.9e-005 192 192 192 255 
-90.3801 -72.6179 7.5185 -0.008324 -0.999965 -4.9e-005 192 192 192 255 
-90.3801 -72.6179 7.5185 -0.008893 -0.99996 0.000107 192 192 192 255 
-91.697 -72.6067 2.7205 -0.008893 -0.99996 0.000107 192 192 192 255 
-89.1834 -72.6286 7.0135 -0.008893 -0.99996 0.000107 192 192 192 255 
-89.1834 -72.6286 7.0135 -0.008957 -0.99996 0.000144 192 192 192 255 
-91.697 -72.6067 2.7205 -0.008957 -0.99996 0.000144 192 192 192 255 
-88.158 -72.6379 6.21649 -0.008957 -0.99996 0.000144 192 192 192 255 
-91.697 -72.6067 2.7205 -0.008615 -0.999963 -0.000263 192 192 192 255 
-86.8835 -72.6485 3.9785 -0.008615 -0.999963 -0.000263 192 192 192 255 
-87.3736 -72.6446 5.1815 -0.008615 -0.999963 -0.000263 192 192 192 255 
-88.158 -72.6379 6.21649 -0.008697 -0.999962 -0.000119 192 192 192 255 
-91.697 -72.6067 2.7205 -0.008697 -0.999962 -0.000119 192 192 192 255 
-87.3736 -72.6446 5.1815 -0.008697 -0.999962 -0.000119 192 192 192 255 
3 0 1 2 
3 3 4 5 
3 6 7 8 
3 9 10 11 
3 12 13 14 
3 15 16 17 
3 18 19 20 
3 21 22 23 
3 24 25 26 
3 27 28 29 
3 30 31 32 
3 33 34 35 
3 36 37 38 
3 39 40 41 
3 42 43 44 
3 45 46 47 
3 48 49 50 
3 51 52 53 
3 54 55 56 
3 57 58 59 
3 60 61 62 
3 63 64 65 
3 66 67 68 
3 69 70 71 
3 72 73 74 
3 75 76 77 
3 78 79 80 
3 81 82 83 
3 84 85 86 
3 87 88 89 
3 90 91 92 
3 93 94 95 
3 96 97 98 
3 99 100 101 
3 102 103 104 
3 105 106 107 
3 108 109 110 
3 111 112 113 
3 114 115 116 
3 117 118 119 
3 120 121 122 
3 123 124 125 
3 126 127 128 
