ply
format ascii 1.0
comment VCGLIB generated
element vertex 399
property float x
property float y
property float z
property float nx
property float ny
property float nz
property uchar red
property uchar green
property uchar blue
property uchar alpha
element face 133
property list uchar int vertex_indices
end_header
12.0033 -56.5565 -14.5075 0.008532 -0.013386 -0.999874 192 192 192 255 
11.9841 -67.9481 -14.3551 0.008532 -0.013386 -0.999874 192 192 192 255 
-4.64313 -67.922 -14.4974 0.008532 -0.013386 -0.999874 192 192 192 255 
12.0033 -56.5565 -14.5075 0.008573 -0.013446 -0.999873 192 192 192 255 
-4.64313 -67.922 -14.4974 0.008573 -0.013446 -0.999873 192 192 192 255 
-4.62331 -56.5303 -14.6504 0.008573 -0.013446 -0.999873 192 192 192 255 
9.61281 -64.3947 -14.0061 -0.008554 0.013337 0.999874 192 192 192 255 
-2.71952 -59.1989 -14.1809 -0.008554 0.013337 0.999874 192 192 192 255 
-2.72792 -64.3753 -14.1119 -0.008554 0.013337 0.999874 192 192 192 255 
-2.71952 -59.1989 -14.1809 -0.008562 0.013318 0.999875 192 192 192 255 
9.61281 -64.3947 -14.0061 -0.008562 0.013318 0.999875 192 192 192 255 
9.62125 -59.2183 -14.075 -0.008562 0.013318 0.999875 192 192 192 255 
-2.72792 -64.3753 -14.1119 -0.008759 0.013338 0.999873 192 192 192 255 
-2.71952 -59.1989 -14.1809 -0.008759 0.013338 0.999873 192 192 192 255 
-4.62724 -56.5245 -14.2333 -0.008759 0.013338 0.999873 192 192 192 255 
-4.62724 -56.5245 -14.2333 -0.008648 0.013417 0.999873 192 192 192 255 
-2.71952 -59.1989 -14.1809 -0.008648 0.013417 0.999873 192 192 192 255 
-2.71777 -58.3437 -14.1924 -0.008648 0.013417 0.999873 192 192 192 255 
-2.72792 -64.3753 -14.1119 -0.008562 0.013385 0.999874 192 192 192 255 
-4.62724 -56.5245 -14.2333 -0.008562 0.013385 0.999874 192 192 192 255 
-4.64636 -67.916 -14.081 -0.008562 0.013385 0.999874 192 192 192 255 
-2.72792 -64.3753 -14.1119 -0.00903 0.013638 0.999866 192 192 192 255 
-4.64636 -67.916 -14.081 -0.00903 0.013638 0.999866 192 192 192 255 
-2.72951 -65.2305 -14.1003 -0.00903 0.013638 0.999866 192 192 192 255 
9.62125 -59.2183 -14.075 -0.008826 0.013319 0.999872 192 192 192 255 
9.61281 -64.3947 -14.0061 -0.008826 0.013319 0.999872 192 192 192 255 
11.9803 -67.9423 -13.9379 -0.008826 0.013319 0.999872 192 192 192 255 
11.9803 -67.9423 -13.9379 -0.008513 0.013528 0.999872 192 192 192 255 
9.61281 -64.3947 -14.0061 -0.008513 0.013528 0.999872 192 192 192 255 
9.61111 -65.2499 -13.9945 -0.008513 0.013528 0.999872 192 192 192 255 
9.62125 -59.2183 -14.075 -0.008045 0.01353 0.999876 192 192 192 255 
11.9803 -67.9423 -13.9379 -0.008045 0.01353 0.999876 192 192 192 255 
9.62285 -58.3632 -14.0865 -0.008045 0.01353 0.999876 192 192 192 255 
9.62285 -58.3632 -14.0865 -0.008667 0.013377 0.999873 192 192 192 255 
11.9803 -67.9423 -13.9379 -0.008667 0.013377 0.999873 192 192 192 255 
11.9995 -56.5507 -14.0902 -0.008667 0.013377 0.999873 192 192 192 255 
-2.72951 -65.2305 -14.1003 0.016148 -0.004332 0.99986 192 192 192 255 
-4.64636 -67.916 -14.081 0.016148 -0.004332 0.99986 192 192 192 255 
-3.68005 -66.5742 -14.0908 0.016148 -0.004332 0.99986 192 192 192 255 
-2.72951 -65.2305 -14.1003 -0.002128 0.036707 0.999324 192 192 192 255 
11.9809 -67.9426 -13.9693 -0.002128 0.036707 0.999324 192 192 192 255 
-2.70235 -65.2325 -14.1001 -0.002128 0.036707 0.999324 192 192 192 255 
-2.71777 -58.3437 -14.1924 0.04792 0.072707 0.996201 192 192 192 255 
-3.66441 -57.434 -14.2132 0.04792 0.072707 0.996201 192 192 192 255 
-4.62724 -56.5245 -14.2333 0.04792 0.072707 0.996201 192 192 192 255 
9.62325 -58.3637 -14.1168 -0.006324 -0.211525 0.977352 192 192 192 255 
-2.69105 -58.3428 -14.192 -0.006324 -0.211525 0.977352 192 192 192 255 
-2.71777 -58.3437 -14.1924 -0.006324 -0.211525 0.977352 192 192 192 255 
9.62285 -58.3632 -14.0865 0.02206 -0.026916 0.999394 192 192 192 255 
11.9995 -56.5507 -14.0902 0.02206 -0.026916 0.999394 192 192 192 255 
10.8044 -57.457 -14.0882 0.02206 -0.026916 0.999394 192 192 192 255 
-2.71737 -58.3446 -14.2267 -0.013145 0.031796 0.999408 192 192 192 255 
11.9995 -56.5507 -14.0902 -0.013145 0.031796 0.999408 192 192 192 255 
11.9682 -56.5517 -14.0906 -0.013145 0.031796 0.999408 192 192 192 255 
-2.72879 -65.2311 -14.1357 -0.022833 -0.051059 0.998435 192 192 192 255 
11.9494 -67.9391 -13.9385 -0.022833 -0.051059 0.998435 192 192 192 255 
11.9803 -67.9423 -13.9379 -0.022833 -0.051059 0.998435 192 192 192 255 
10.7891 -66.595 -13.9665 -0.034036 -0.008941 0.999381 192 192 192 255 
11.9803 -67.9423 -13.9379 -0.034036 -0.008941 0.999381 192 192 192 255 
9.61111 -65.2499 -13.9945 -0.034036 -0.008941 0.999381 192 192 192 255 
-2.72951 -65.2305 -14.1003 -0.008579 0.013317 0.999875 192 192 192 255 
-4.64636 -67.916 -14.081 -0.008579 0.013317 0.999875 192 192 192 255 
11.9803 -67.9423 -13.9379 -0.008579 0.013317 0.999875 192 192 192 255 
-2.72951 -65.2305 -14.1003 -0.008546 0.013499 0.999872 192 192 192 255 
11.9803 -67.9423 -13.9379 -0.008546 0.013499 0.999872 192 192 192 255 
9.61111 -65.2499 -13.9945 -0.008546 0.013499 0.999872 192 192 192 255 
10.7952 -66.595 -13.9665 0.388741 0.3599 0.848146 192 192 192 255 
9.61111 -65.2499 -13.9945 0.388741 0.3599 0.848146 192 192 192 255 
11.9803 -67.9423 -13.9379 0.388741 0.3599 0.848146 192 192 192 255 
11.9803 -67.9423 -13.9379 -0.134691 -0.018754 0.99071 192 192 192 255 
9.62135 -59.219 -14.0935 -0.134691 -0.018754 0.99071 192 192 192 255 
11.9757 -67.93 -13.9383 -0.134691 -0.018754 0.99071 192 192 192 255 
11.9803 -67.9423 -13.9379 -0.095348 0.015626 0.995321 192 192 192 255 
12 -56.5503 -14.1149 -0.095348 0.015626 0.995321 192 192 192 255 
11.9782 -67.9208 -13.9385 -0.095348 0.015626 0.995321 192 192 192 255 
9.62307 -58.3636 -14.1063 -0.958955 -0.238682 -0.15309 192 192 192 255 
11.9758 -67.9239 -13.9384 -0.958955 -0.238682 -0.15309 192 192 192 255 
11.9803 -67.9423 -13.9379 -0.958955 -0.238682 -0.15309 192 192 192 255 
-4.62685 -56.5242 -14.2568 -0.232764 0.015412 0.972411 192 192 192 255 
-4.64636 -67.916 -14.081 -0.232764 0.015412 0.972411 192 192 192 255 
-4.64473 -67.9008 -14.0808 -0.232764 0.015412 0.972411 192 192 192 255 
-3.6877 -66.5723 -14.0903 0.547961 -0.385768 0.742241 192 192 192 255 
-4.64636 -67.916 -14.081 0.547961 -0.385768 0.742241 192 192 192 255 
-2.72951 -65.2305 -14.1003 0.547961 -0.385768 0.742241 192 192 192 255 
4.15565 -56.6682 -14.3585 -0.008587 0.006124 0.999944 192 192 192 255 
-4.56165 -56.6545 -14.4334 -0.008587 0.006124 0.999944 192 192 192 255 
-4.56847 -61.0129 -14.4068 -0.008587 0.006124 0.999944 192 192 192 255 
4.15565 -56.6682 -14.3585 -0.008543 0.006035 0.999945 192 192 192 255 
-4.56847 -61.0129 -14.4068 -0.008543 0.006035 0.999945 192 192 192 255 
0.797501 -60.0157 -14.367 -0.008543 0.006035 0.999945 192 192 192 255 
0.797501 -60.0157 -14.367 -0.008625 0.006478 0.999942 192 192 192 255 
-4.56847 -61.0129 -14.4068 -0.008625 0.006478 0.999942 192 192 192 255 
0.795762 -61.0214 -14.3605 -0.008625 0.006478 0.999942 192 192 192 255 
4.15565 -56.6682 -14.3585 -0.008554 0.006046 0.999945 192 192 192 255 
0.797501 -60.0157 -14.367 -0.008554 0.006046 0.999945 192 192 192 255 
4.15064 -60.021 -14.3383 -0.008554 0.006046 0.999945 192 192 192 255 
4.15797 -56.6697 -14.6329 0.008576 -0.006101 -0.999945 192 192 192 255 
-4.56613 -61.0144 -14.6812 0.008576 -0.006101 -0.999945 192 192 192 255 
-4.55925 -56.656 -14.7077 0.008576 -0.006101 -0.999945 192 192 192 255 
-4.56613 -61.0144 -14.6812 0.008601 -0.006152 -0.999944 192 192 192 255 
4.15797 -56.6697 -14.6329 0.008601 -0.006152 -0.999944 192 192 192 255 
0.799983 -60.0172 -14.6412 0.008601 -0.006152 -0.999944 192 192 192 255 
-4.56613 -61.0144 -14.6812 0.008626 -0.006285 -0.999943 192 192 192 255 
0.799983 -60.0172 -14.6412 0.008626 -0.006285 -0.999943 192 192 192 255 
0.798167 -61.0229 -14.6349 0.008626 -0.006285 -0.999943 192 192 192 255 
0.799983 -60.0172 -14.6412 0.008497 -0.006047 -0.999946 192 192 192 255 
4.15797 -56.6697 -14.6329 0.008497 -0.006047 -0.999946 192 192 192 255 
4.15297 -60.0225 -14.6126 0.008497 -0.006047 -0.999946 192 192 192 255 
-2.71777 -58.3437 -14.1924 -0.008585 0.013483 0.999872 192 192 192 255 
11.9995 -56.5507 -14.0902 -0.008585 0.013483 0.999872 192 192 192 255 
-4.62724 -56.5245 -14.2333 -0.008585 0.013483 0.999872 192 192 192 255 
11.9995 -56.5507 -14.0902 -0.008554 0.013229 0.999876 192 192 192 255 
-2.71777 -58.3437 -14.1924 -0.008554 0.013229 0.999876 192 192 192 255 
9.62285 -58.3632 -14.0865 -0.008554 0.013229 0.999876 192 192 192 255 
10.8116 -57.4621 -14.0882 -0.017288 0.024682 0.999546 192 192 192 255 
11.9995 -56.5507 -14.0902 -0.017288 0.024682 0.999546 192 192 192 255 
9.62285 -58.3632 -14.0865 -0.017288 0.024682 0.999546 192 192 192 255 
9.62285 -58.3632 -14.0865 -0.075684 -0.009489 0.997087 192 192 192 255 
9.62146 -59.2187 -14.0948 -0.075684 -0.009489 0.997087 192 192 192 255 
9.62531 -58.3744 -14.0865 -0.075684 -0.009489 0.997087 192 192 192 255 
-3.67177 -57.4351 -14.213 -0.487451 -0.495451 0.718971 192 192 192 255 
-2.71777 -58.3437 -14.1924 -0.487451 -0.495451 0.718971 192 192 192 255 
-4.62724 -56.5245 -14.2333 -0.487451 -0.495451 0.718971 192 192 192 255 
-2.71777 -59.2015 -14.3935 -0.008566 0.01066 0.999907 192 192 192 255 
9.62456 -58.3663 -14.2966 -0.008566 0.01066 0.999907 192 192 192 255 
-2.71622 -58.3469 -14.4026 -0.008566 0.01066 0.999907 192 192 192 255 
9.62456 -58.3663 -14.2966 -0.008558 0.01054 0.999908 192 192 192 255 
-2.71777 -59.2015 -14.3935 -0.008558 0.01054 0.999908 192 192 192 255 
9.62293 -59.221 -14.2877 -0.008558 0.01054 0.999908 192 192 192 255 
9.61296 -65.2524 -14.2244 -0.008558 0.010655 0.999907 192 192 192 255 
9.61452 -64.3977 -14.2335 -0.008558 0.010655 0.999907 192 192 192 255 
-2.72775 -65.233 -14.3302 -0.008558 0.010655 0.999907 192 192 192 255 
-2.72775 -65.233 -14.3302 -0.00855 0.01054 0.999908 192 192 192 255 
9.61452 -64.3977 -14.2335 -0.00855 0.01054 0.999908 192 192 192 255 
-2.72612 -64.3783 -14.3392 -0.00855 0.01054 0.999908 192 192 192 255 
11.9995 -56.5507 -14.0902 0.001696 0.999903 -0.013832 192 192 192 255 
12.0033 -56.5565 -14.5075 0.001696 0.999903 -0.013832 192 192 192 255 
-4.62331 -56.5303 -14.6504 0.001696 0.999903 -0.013832 192 192 192 255 
11.9995 -56.5507 -14.0902 0.001699 0.999902 -0.01393 192 192 192 255 
-4.62331 -56.5303 -14.6504 0.001699 0.999902 -0.01393 192 192 192 255 
-4.62724 -56.5245 -14.2333 0.001699 0.999902 -0.01393 192 192 192 255 
-4.64636 -67.916 -14.081 -0.001697 -0.999902 0.013881 192 192 192 255 
11.9841 -67.9481 -14.3551 -0.001697 -0.999902 0.013881 192 192 192 255 
11.9803 -67.9423 -13.9379 -0.001697 -0.999902 0.013881 192 192 192 255 
11.9841 -67.9481 -14.3551 -0.001691 -0.999897 0.01424 192 192 192 255 
-4.64636 -67.916 -14.081 -0.001691 -0.999897 0.01424 192 192 192 255 
-4.64313 -67.922 -14.4974 -0.001691 -0.999897 0.01424 192 192 192 255 
11.9803 -67.9423 -13.9379 0.999957 -0.001563 0.009126 192 192 192 255 
12.0033 -56.5565 -14.5075 0.999957 -0.001563 0.009126 192 192 192 255 
11.9995 -56.5507 -14.0902 0.999957 -0.001563 0.009126 192 192 192 255 
12.0033 -56.5565 -14.5075 0.999957 -0.001563 0.009131 192 192 192 255 
11.9803 -67.9423 -13.9379 0.999957 -0.001563 0.009131 192 192 192 255 
11.9841 -67.9481 -14.3551 0.999957 -0.001563 0.009131 192 192 192 255 
-4.62724 -56.5245 -14.2333 -0.999954 0.001613 -0.009444 192 192 192 255 
-4.62331 -56.5303 -14.6504 -0.999954 0.001613 -0.009444 192 192 192 255 
-4.64313 -67.922 -14.4974 -0.999954 0.001613 -0.009444 192 192 192 255 
-4.62724 -56.5245 -14.2333 -0.999969 0.001574 -0.007779 192 192 192 255 
-4.64313 -67.922 -14.4974 -0.999969 0.001574 -0.007779 192 192 192 255 
-4.64636 -67.916 -14.081 -0.999969 0.001574 -0.007779 192 192 192 255 
8.99107 -57.6596 -13.9483 -0.008446 0.010465 0.99991 192 192 192 255 
8.99539 -55.0783 -13.9753 -0.008446 0.010465 0.99991 192 192 192 255 
7.31047 -55.0757 -13.9895 -0.008446 0.010465 0.99991 192 192 192 255 
8.99107 -57.6596 -13.9483 -0.00839 0.010501 0.99991 192 192 192 255 
7.31047 -55.0757 -13.9895 -0.00839 0.010501 0.99991 192 192 192 255 
7.30621 -57.657 -13.9624 -0.00839 0.010501 0.99991 192 192 192 255 
-0.464518 -57.6447 -14.0291 -0.008742 0.010463 0.999907 192 192 192 255 
-0.460259 -55.0635 -14.0561 -0.008742 0.010463 0.999907 192 192 192 255 
-2.14432 -55.0608 -14.0709 -0.008742 0.010463 0.999907 192 192 192 255 
-0.464518 -57.6447 -14.0291 -0.008802 0.010424 0.999907 192 192 192 255 
-2.14432 -55.0608 -14.0709 -0.008802 0.010424 0.999907 192 192 192 255 
-2.14873 -57.642 -14.044 -0.008802 0.010424 0.999907 192 192 192 255 
-0.46142 -57.6484 -14.3749 0.008329 -0.010463 -0.999911 192 192 192 255 
-2.14186 -55.0645 -14.4159 0.008329 -0.010463 -0.999911 192 192 192 255 
-0.457015 -55.0671 -14.4018 0.008329 -0.010463 -0.999911 192 192 192 255 
-2.14186 -55.0645 -14.4159 0.008331 -0.010462 -0.999911 192 192 192 255 
-0.46142 -57.6484 -14.3749 0.008331 -0.010462 -0.999911 192 192 192 255 
-2.14627 -57.6458 -14.3889 0.008331 -0.010462 -0.999911 192 192 192 255 
8.99353 -57.6634 -14.2932 0.0088 -0.010502 -0.999906 192 192 192 255 
7.30939 -57.6606 -14.3081 0.0088 -0.010502 -0.999906 192 192 192 255 
7.31364 -55.0794 -14.3352 0.0088 -0.010502 -0.999906 192 192 192 255 
8.99353 -57.6634 -14.2932 0.008798 -0.010503 -0.999906 192 192 192 255 
7.31364 -55.0794 -14.3352 0.008798 -0.010503 -0.999906 192 192 192 255 
8.99777 -55.0821 -14.3203 0.008798 -0.010503 -0.999906 192 192 192 255 
11.5637 -64.6445 -14.5456 0.008551 -0.005815 -0.999947 192 192 192 255 
1.92395 -64.6293 -14.6282 0.008551 -0.005815 -0.999947 192 192 192 255 
8.21102 -64.2626 -14.5765 0.008551 -0.005815 -0.999947 192 192 192 255 
8.21102 -64.2626 -14.5765 0.008814 -0.010322 -0.999908 192 192 192 255 
1.92395 -64.6293 -14.6282 0.008814 -0.010322 -0.999908 192 192 192 255 
5.73894 -64.2586 -14.5984 0.008814 -0.010322 -0.999908 192 192 192 255 
5.73894 -64.2586 -14.5984 0.008322 -0.00526 -0.999952 192 192 192 255 
1.92395 -64.6293 -14.6282 0.008322 -0.00526 -0.999952 192 192 192 255 
5.73921 -63.9645 -14.5999 0.008322 -0.00526 -0.999952 192 192 192 255 
5.73921 -63.9645 -14.5999 0.008552 -0.006582 -0.999942 192 192 192 255 
1.92395 -64.6293 -14.6282 0.008552 -0.006582 -0.999942 192 192 192 255 
1.92548 -63.9585 -14.6326 0.008552 -0.006582 -0.999942 192 192 192 255 
11.5637 -64.6445 -14.5456 0.008565 -0.005689 -0.999947 192 192 192 255 
8.21102 -64.2626 -14.5765 0.008565 -0.005689 -0.999947 192 192 192 255 
11.5643 -63.9738 -14.5494 0.008565 -0.005689 -0.999947 192 192 192 255 
11.5643 -63.9738 -14.5494 0.008731 -0.007613 -0.999933 192 192 192 255 
8.21102 -64.2626 -14.5765 0.008731 -0.007613 -0.999933 192 192 192 255 
8.212 -63.9684 -14.5788 0.008731 -0.007613 -0.999933 192 192 192 255 
5.73622 -64.2562 -14.3069 -0.008633 0.00584 0.999946 192 192 192 255 
1.92188 -64.6277 -14.3377 -0.008633 0.00584 0.999946 192 192 192 255 
11.5609 -64.643 -14.2544 -0.008633 0.00584 0.999946 192 192 192 255 
5.73622 -64.2562 -14.3069 -0.0085 0.007841 0.999933 192 192 192 255 
11.5609 -64.643 -14.2544 -0.0085 0.007841 0.999933 192 192 192 255 
8.20885 -64.26 -14.2859 -0.0085 0.007841 0.999933 192 192 192 255 
1.92188 -64.6277 -14.3377 -0.008605 0.005549 0.999948 192 192 192 255 
5.73622 -64.2562 -14.3069 -0.008605 0.005549 0.999948 192 192 192 255 
1.92262 -63.957 -14.3414 -0.008605 0.005549 0.999948 192 192 192 255 
1.92262 -63.957 -14.3414 -0.008578 0.00589 0.999946 192 192 192 255 
5.73622 -64.2562 -14.3069 -0.008578 0.00589 0.999946 192 192 192 255 
5.73648 -63.963 -14.3087 -0.008578 0.00589 0.999946 192 192 192 255 
8.20885 -64.26 -14.2859 -0.008627 0.006728 0.99994 192 192 192 255 
11.5609 -64.643 -14.2544 -0.008627 0.006728 0.99994 192 192 192 255 
11.5623 -63.9722 -14.2589 -0.008627 0.006728 0.99994 192 192 192 255 
8.20885 -64.26 -14.2859 -0.008528 0.00557 0.999948 192 192 192 255 
11.5623 -63.9722 -14.2589 -0.008528 0.00557 0.999948 192 192 192 255 
8.20928 -63.9669 -14.2875 -0.008528 0.00557 0.999948 192 192 192 255 
-2.72775 -65.233 -14.3302 0.001669 0.999938 -0.011036 192 192 192 255 
-2.72951 -65.2305 -14.1003 0.001669 0.999938 -0.011036 192 192 192 255 
9.61296 -65.2524 -14.2244 0.001669 0.999938 -0.011036 192 192 192 255 
9.61296 -65.2524 -14.2244 0.001668 0.999937 -0.011139 192 192 192 255 
-2.72951 -65.2305 -14.1003 0.001668 0.999937 -0.011139 192 192 192 255 
9.61111 -65.2499 -13.9945 0.001668 0.999937 -0.011139 192 192 192 255 
9.61281 -64.3947 -14.0061 -0.001685 -0.999911 0.013207 192 192 192 255 
-2.72612 -64.3783 -14.3392 -0.001685 -0.999911 0.013207 192 192 192 255 
9.61452 -64.3977 -14.2335 -0.001685 -0.999911 0.013207 192 192 192 255 
-2.72612 -64.3783 -14.3392 -0.001688 -0.999909 0.013346 192 192 192 255 
9.61281 -64.3947 -14.0061 -0.001688 -0.999909 0.013346 192 192 192 255 
-2.72792 -64.3753 -14.1119 -0.001688 -0.999909 0.013346 192 192 192 255 
1.92188 -64.6277 -14.3377 -0.001618 -0.999983 0.005531 192 192 192 255 
1.92395 -64.6293 -14.6282 -0.001618 -0.999983 0.005531 192 192 192 255 
11.5637 -64.6445 -14.5456 -0.001618 -0.999983 0.005531 192 192 192 255 
1.92188 -64.6277 -14.3377 -0.00163 -0.999986 0.005014 192 192 192 255 
11.5637 -64.6445 -14.5456 -0.00163 -0.999986 0.005014 192 192 192 255 
11.5609 -64.643 -14.2544 -0.00163 -0.999986 0.005014 192 192 192 255 
-2.71952 -59.1989 -14.1809 0.001682 0.99992 -0.012506 192 192 192 255 
9.62125 -59.2183 -14.075 0.001682 0.99992 -0.012506 192 192 192 255 
9.62293 -59.221 -14.2877 0.001682 0.99992 -0.012506 192 192 192 255 
-2.71952 -59.1989 -14.1809 0.001681 0.999919 -0.012583 192 192 192 255 
9.62293 -59.221 -14.2877 0.001681 0.999919 -0.012583 192 192 192 255 
-2.71777 -59.2015 -14.3935 0.001681 0.999919 -0.012583 192 192 192 255 
-2.71622 -58.3469 -14.4026 -0.001702 -0.999889 0.014794 192 192 192 255 
9.62456 -58.3663 -14.2966 -0.001702 -0.999889 0.014794 192 192 192 255 
-2.71777 -58.3437 -14.1924 -0.001702 -0.999889 0.014794 192 192 192 255 
-2.71777 -58.3437 -14.1924 -0.001701 -0.999888 0.01489 192 192 192 255 
9.62456 -58.3663 -14.2966 -0.001701 -0.999888 0.01489 192 192 192 255 
9.62285 -58.3632 -14.0865 -0.001701 -0.999888 0.01489 192 192 192 255 
4.15565 -56.6682 -14.3585 0.001622 0.999984 -0.005464 192 192 192 255 
4.15797 -56.6697 -14.6329 0.001622 0.999984 -0.005464 192 192 192 255 
-4.55925 -56.656 -14.7077 0.001622 0.999984 -0.005464 192 192 192 255 
4.15565 -56.6682 -14.3585 0.001625 0.999983 -0.005535 192 192 192 255 
-4.55925 -56.656 -14.7077 0.001625 0.999983 -0.005535 192 192 192 255 
-4.56165 -56.6545 -14.4334 0.001625 0.999983 -0.005535 192 192 192 255 
-4.56613 -61.0144 -14.6812 -0.001632 -0.999984 0.005464 192 192 192 255 
0.798167 -61.0229 -14.6349 -0.001632 -0.999984 0.005464 192 192 192 255 
-4.56847 -61.0129 -14.4068 -0.001632 -0.999984 0.005464 192 192 192 255 
-4.56847 -61.0129 -14.4068 -0.001632 -0.999984 0.005463 192 192 192 255 
0.798167 -61.0229 -14.6349 -0.001632 -0.999984 0.005463 192 192 192 255 
0.795762 -61.0214 -14.3605 -0.001632 -0.999984 0.005463 192 192 192 255 
-4.56165 -56.6545 -14.4334 -0.99996 0.001525 -0.008758 192 192 192 255 
-4.55925 -56.656 -14.7077 -0.99996 0.001525 -0.008758 192 192 192 255 
-4.56613 -61.0144 -14.6812 -0.99996 0.001525 -0.008758 192 192 192 255 
-4.56165 -56.6545 -14.4334 -0.999962 0.001513 -0.008536 192 192 192 255 
-4.56613 -61.0144 -14.6812 -0.999962 0.001513 -0.008536 192 192 192 255 
-4.56847 -61.0129 -14.4068 -0.999962 0.001513 -0.008536 192 192 192 255 
5.73921 -63.9645 -14.5999 0.001614 0.999986 -0.005001 192 192 192 255 
1.92548 -63.9585 -14.6326 0.001614 0.999986 -0.005001 192 192 192 255 
5.73648 -63.963 -14.3087 0.001614 0.999986 -0.005001 192 192 192 255 
5.73648 -63.963 -14.3087 0.001619 0.999986 -0.005055 192 192 192 255 
1.92548 -63.9585 -14.6326 0.001619 0.999986 -0.005055 192 192 192 255 
1.92262 -63.957 -14.3414 0.001619 0.999986 -0.005055 192 192 192 255 
8.212 -63.9684 -14.5788 0.001609 0.999986 -0.005001 192 192 192 255 
8.20928 -63.9669 -14.2875 0.001609 0.999986 -0.005001 192 192 192 255 
11.5623 -63.9722 -14.2589 0.001609 0.999986 -0.005001 192 192 192 255 
8.212 -63.9684 -14.5788 0.001652 0.999984 -0.00545 192 192 192 255 
11.5623 -63.9722 -14.2589 0.001652 0.999984 -0.00545 192 192 192 255 
11.5643 -63.9738 -14.5494 0.001652 0.999984 -0.00545 192 192 192 255 
4.15297 -60.0225 -14.6126 0.999963 -0.00144 0.008499 192 192 192 255 
4.15797 -56.6697 -14.6329 0.999963 -0.00144 0.008499 192 192 192 255 
4.15064 -60.021 -14.3383 0.999963 -0.00144 0.008499 192 192 192 255 
4.15064 -60.021 -14.3383 0.999963 -0.001443 0.008462 192 192 192 255 
4.15797 -56.6697 -14.6329 0.999963 -0.001443 0.008462 192 192 192 255 
4.15565 -56.6682 -14.3585 0.999963 -0.001443 0.008462 192 192 192 255 
4.15064 -60.021 -14.3383 -0.001619 -0.999983 0.005592 192 192 192 255 
0.797501 -60.0157 -14.367 -0.001619 -0.999983 0.005592 192 192 192 255 
0.799983 -60.0172 -14.6412 -0.001619 -0.999983 0.005592 192 192 192 255 
4.15064 -60.021 -14.3383 -0.001607 -0.999984 0.005464 192 192 192 255 
0.799983 -60.0172 -14.6412 -0.001607 -0.999984 0.005464 192 192 192 255 
4.15297 -60.0225 -14.6126 -0.001607 -0.999984 0.005464 192 192 192 255 
-2.14432 -55.0608 -14.0709 -0.999973 0.001634 -0.007149 192 192 192 255 
-2.14627 -57.6458 -14.3889 -0.999973 0.001634 -0.007149 192 192 192 255 
-2.14873 -57.642 -14.044 -0.999973 0.001634 -0.007149 192 192 192 255 
-2.14627 -57.6458 -14.3889 -0.999973 0.001634 -0.007147 192 192 192 255 
-2.14432 -55.0608 -14.0709 -0.999973 0.001634 -0.007147 192 192 192 255 
-2.14186 -55.0645 -14.4159 -0.999973 0.001634 -0.007147 192 192 192 255 
7.31047 -55.0757 -13.9895 -0.999956 0.001554 -0.009217 192 192 192 255 
7.30939 -57.6606 -14.3081 -0.999956 0.001554 -0.009217 192 192 192 255 
7.30621 -57.657 -13.9624 -0.999956 0.001554 -0.009217 192 192 192 255 
7.30939 -57.6606 -14.3081 -0.999957 0.00155 -0.009188 192 192 192 255 
7.31047 -55.0757 -13.9895 -0.999957 0.00155 -0.009188 192 192 192 255 
7.31364 -55.0794 -14.3352 -0.999957 0.00155 -0.009188 192 192 192 255 
-0.464518 -57.6447 -14.0291 0.999958 -0.001613 0.008977 192 192 192 255 
-0.46142 -57.6484 -14.3749 0.999958 -0.001613 0.008977 192 192 192 255 
-0.457015 -55.0671 -14.4018 0.999958 -0.001613 0.008977 192 192 192 255 
-0.464518 -57.6447 -14.0291 0.999955 -0.001552 0.009399 192 192 192 255 
-0.457015 -55.0671 -14.4018 0.999955 -0.001552 0.009399 192 192 192 255 
-0.460259 -55.0635 -14.0561 0.999955 -0.001552 0.009399 192 192 192 255 
8.99107 -57.6596 -13.9483 0.999973 -0.001568 0.00715 192 192 192 255 
8.99353 -57.6634 -14.2932 0.999973 -0.001568 0.00715 192 192 192 255 
8.99777 -55.0821 -14.3203 0.999973 -0.001568 0.00715 192 192 192 255 
8.99107 -57.6596 -13.9483 0.999975 -0.001601 0.006916 192 192 192 255 
8.99777 -55.0821 -14.3203 0.999975 -0.001601 0.006916 192 192 192 255 
8.99539 -55.0783 -13.9753 0.999975 -0.001601 0.006916 192 192 192 255 
5.73622 -64.2562 -14.3069 0.001694 0.999964 -0.008361 192 192 192 255 
8.21102 -64.2626 -14.5765 0.001694 0.999964 -0.008361 192 192 192 255 
5.73894 -64.2586 -14.5984 0.001694 0.999964 -0.008361 192 192 192 255 
8.21102 -64.2626 -14.5765 0.001637 0.999959 -0.008886 192 192 192 255 
5.73622 -64.2562 -14.3069 0.001637 0.999959 -0.008886 192 192 192 255 
8.20885 -64.26 -14.2859 0.001637 0.999959 -0.008886 192 192 192 255 
-2.14873 -57.642 -14.044 -0.001622 -0.999938 0.011024 192 192 192 255 
-2.14627 -57.6458 -14.3889 -0.001622 -0.999938 0.011024 192 192 192 255 
-0.46142 -57.6484 -14.3749 -0.001622 -0.999938 0.011024 192 192 192 255 
-2.14873 -57.642 -14.044 -0.001713 -0.999943 0.010565 192 192 192 255 
-0.46142 -57.6484 -14.3749 -0.001713 -0.999943 0.010565 192 192 192 255 
-0.464518 -57.6447 -14.0291 -0.001713 -0.999943 0.010565 192 192 192 255 
7.30621 -57.657 -13.9624 -0.001713 -0.999942 0.010634 192 192 192 255 
7.30939 -57.6606 -14.3081 -0.001713 -0.999942 0.010634 192 192 192 255 
8.99353 -57.6634 -14.2932 -0.001713 -0.999942 0.010634 192 192 192 255 
7.30621 -57.657 -13.9624 -0.001637 -0.999938 0.011024 192 192 192 255 
8.99353 -57.6634 -14.2932 -0.001637 -0.999938 0.011024 192 192 192 255 
8.99107 -57.6596 -13.9483 -0.001637 -0.999938 0.011024 192 192 192 255 
-0.460259 -55.0635 -14.0561 0.001704 0.999938 -0.010965 192 192 192 255 
-2.14186 -55.0645 -14.4159 0.001704 0.999938 -0.010965 192 192 192 255 
-2.14432 -55.0608 -14.0709 0.001704 0.999938 -0.010965 192 192 192 255 
-2.14186 -55.0645 -14.4159 0.001619 0.999943 -0.010565 192 192 192 255 
-0.460259 -55.0635 -14.0561 0.001619 0.999943 -0.010565 192 192 192 255 
-0.457015 -55.0671 -14.4018 0.001619 0.999943 -0.010565 192 192 192 255 
8.99539 -55.0783 -13.9753 0.001643 0.999942 -0.010624 192 192 192 255 
7.31364 -55.0794 -14.3352 0.001643 0.999942 -0.010624 192 192 192 255 
7.31047 -55.0757 -13.9895 0.001643 0.999942 -0.010624 192 192 192 255 
7.31364 -55.0794 -14.3352 0.001716 0.999938 -0.010966 192 192 192 255 
8.99539 -55.0783 -13.9753 0.001716 0.999938 -0.010966 192 192 192 255 
8.99777 -55.0821 -14.3203 0.001716 0.999938 -0.010966 192 192 192 255 
0.799983 -60.0172 -14.6412 0.999957 -0.001749 0.009062 192 192 192 255 
0.797501 -60.0157 -14.367 0.999957 -0.001749 0.009062 192 192 192 255 
0.798167 -61.0229 -14.6349 0.999957 -0.001749 0.009062 192 192 192 255 
0.798167 -61.0229 -14.6349 0.99996 -0.001672 0.008774 192 192 192 255 
0.797501 -60.0157 -14.367 0.99996 -0.001672 0.008774 192 192 192 255 
0.795762 -61.0214 -14.3605 0.99996 -0.001672 0.008774 192 192 192 255 
-2.72951 -65.2305 -14.1003 0.999969 -0.001755 0.007674 192 192 192 255 
-2.72775 -65.233 -14.3302 0.999969 -0.001755 0.007674 192 192 192 255 
-2.72792 -64.3753 -14.1119 0.999969 -0.001755 0.007674 192 192 192 255 
-2.72792 -64.3753 -14.1119 0.999967 -0.001824 0.007944 192 192 192 255 
-2.72775 -65.233 -14.3302 0.999967 -0.001824 0.007944 192 192 192 255 
-2.72612 -64.3783 -14.3392 0.999967 -0.001824 0.007944 192 192 192 255 
9.61296 -65.2524 -14.2244 -0.999966 0.00174 -0.008069 192 192 192 255 
9.61111 -65.2499 -13.9945 -0.999966 0.00174 -0.008069 192 192 192 255 
9.61452 -64.3977 -14.2335 -0.999966 0.00174 -0.008069 192 192 192 255 
9.61452 -64.3977 -14.2335 -0.99997 0.001886 -0.007545 192 192 192 255 
9.61111 -65.2499 -13.9945 -0.99997 0.001886 -0.007545 192 192 192 255 
9.61281 -64.3947 -14.0061 -0.99997 0.001886 -0.007545 192 192 192 255 
1.92262 -63.957 -14.3414 -0.999949 0.002216 -0.009834 192 192 192 255 
1.92548 -63.9585 -14.6326 -0.999949 0.002216 -0.009834 192 192 192 255 
1.92395 -64.6293 -14.6282 -0.999949 0.002216 -0.009834 192 192 192 255 
1.92262 -63.957 -14.3414 -0.999974 0.001064 -0.007132 192 192 192 255 
1.92395 -64.6293 -14.6282 -0.999974 0.001064 -0.007132 192 192 192 255 
1.92188 -64.6277 -14.3377 -0.999974 0.001064 -0.007132 192 192 192 255 
11.5609 -64.643 -14.2544 0.999953 -0.00084 0.009618 192 192 192 255 
11.5637 -64.6445 -14.5456 0.999953 -0.00084 0.009618 192 192 192 255 
11.5643 -63.9738 -14.5494 0.999953 -0.00084 0.009618 192 192 192 255 
11.5609 -64.643 -14.2544 0.999974 -0.002041 0.006894 192 192 192 255 
11.5643 -63.9738 -14.5494 0.999974 -0.002041 0.006894 192 192 192 255 
11.5623 -63.9722 -14.2589 0.999974 -0.002041 0.006894 192 192 192 255 
9.62293 -59.221 -14.2877 -0.999967 0.001825 -0.007919 192 192 192 255 
9.62125 -59.2183 -14.075 -0.999967 0.001825 -0.007919 192 192 192 255 
9.62456 -58.3663 -14.2966 -0.999967 0.001825 -0.007919 192 192 192 255 
9.62456 -58.3663 -14.2966 -0.999965 0.001761 -0.008164 192 192 192 255 
9.62125 -59.2183 -14.075 -0.999965 0.001761 -0.008164 192 192 192 255 
9.62285 -58.3632 -14.0865 -0.999965 0.001761 -0.008164 192 192 192 255 
-2.71952 -59.1989 -14.1809 0.999964 -0.001936 0.008256 192 192 192 255 
-2.71777 -59.2015 -14.3935 0.999964 -0.001936 0.008256 192 192 192 255 
-2.71777 -58.3437 -14.1924 0.999964 -0.001936 0.008256 192 192 192 255 
-2.71777 -58.3437 -14.1924 0.999971 -0.001735 0.0074 192 192 192 255 
-2.71777 -59.2015 -14.3935 0.999971 -0.001735 0.0074 192 192 192 255 
-2.71622 -58.3469 -14.4026 0.999971 -0.001735 0.0074 192 192 192 255 
5.73648 -63.963 -14.3087 0.999956 -0.00087 0.009377 192 192 192 255 
5.73894 -64.2586 -14.5984 0.999956 -0.00087 0.009377 192 192 192 255 
5.73921 -63.9645 -14.5999 0.999956 -0.00087 0.009377 192 192 192 255 
5.73894 -64.2586 -14.5984 0.999956 -0.000833 0.00934 192 192 192 255 
5.73648 -63.963 -14.3087 0.999956 -0.000833 0.00934 192 192 192 255 
5.73622 -64.2562 -14.3069 0.999956 -0.000833 0.00934 192 192 192 255 
8.212 -63.9684 -14.5788 -0.999955 0.001415 -0.009346 192 192 192 255 
8.20885 -64.26 -14.2859 -0.999955 0.001415 -0.009346 192 192 192 255 
8.20928 -63.9669 -14.2875 -0.999955 0.001415 -0.009346 192 192 192 255 
8.20885 -64.26 -14.2859 -0.999967 0.003272 -0.007497 192 192 192 255 
8.212 -63.9684 -14.5788 -0.999967 0.003272 -0.007497 192 192 192 255 
8.21102 -64.2626 -14.5765 -0.999967 0.003272 -0.007497 192 192 192 255 
3 0 1 2 
3 3 4 5 
3 6 7 8 
3 9 10 11 
3 12 13 14 
3 15 16 17 
3 18 19 20 
3 21 22 23 
3 24 25 26 
3 27 28 29 
3 30 31 32 
3 33 34 35 
3 36 37 38 
3 39 40 41 
3 42 43 44 
3 45 46 47 
3 48 49 50 
3 51 52 53 
3 54 55 56 
3 57 58 59 
3 60 61 62 
3 63 64 65 
3 66 67 68 
3 69 70 71 
3 72 73 74 
3 75 76 77 
3 78 79 80 
3 81 82 83 
3 84 85 86 
3 87 88 89 
3 90 91 92 
3 93 94 95 
3 96 97 98 
3 99 100 101 
3 102 103 104 
3 105 106 107 
3 108 109 110 
3 111 112 113 
3 114 115 116 
3 117 118 119 
3 120 121 122 
3 123 124 125 
3 126 127 128 
3 129 130 131 
3 132 133 134 
3 135 136 137 
3 138 139 140 
3 141 142 143 
3 144 145 146 
3 147 148 149 
3 150 151 152 
3 153 154 155 
3 156 157 158 
3 159 160 161 
3 162 163 164 
3 165 166 167 
3 168 169 170 
3 171 172 173 
3 174 175 176 
3 177 178 179 
3 180 181 182 
3 183 184 185 
3 186 187 188 
3 189 190 191 
3 192 193 194 
3 195 196 197 
3 198 199 200 
3 201 202 203 
3 204 205 206 
3 207 208 209 
3 210 211 212 
3 213 214 215 
3 216 217 218 
3 219 220 221 
3 222 223 224 
3 225 226 227 
3 228 229 230 
3 231 232 233 
3 234 235 236 
3 237 238 239 
3 240 241 242 
3 243 244 245 
3 246 247 248 
3 249 250 251 
3 252 253 254 
3 255 256 257 
3 258 259 260 
3 261 262 263 
3 264 265 266 
3 267 268 269 
3 270 271 272 
3 273 274 275 
3 276 277 278 
3 279 280 281 
3 282 283 284 
3 285 286 287 
3 288 289 290 
3 291 292 293 
3 294 295 296 
3 297 298 299 
3 300 301 302 
3 303 304 305 
3 306 307 308 
3 309 310 311 
3 312 313 314 
3 315 316 317 
3 318 319 320 
3 321 322 323 
3 324 325 326 
3 327 328 329 
3 330 331 332 
3 333 334 335 
3 336 337 338 
3 339 340 341 
3 342 343 344 
3 345 346 347 
3 348 349 350 
3 351 352 353 
3 354 355 356 
3 357 358 359 
3 360 361 362 
3 363 364 365 
3 366 367 368 
3 369 370 371 
3 372 373 374 
3 375 376 377 
3 378 379 380 
3 381 382 383 
3 384 385 386 
3 387 388 389 
3 390 391 392 
3 393 394 395 
3 396 397 398 
