ply
format ascii 1.0
comment Created by Blender 2.77 (sub 0) - www.blender.org, source file: 'Star Wars FALCON_Centred_Doors_Closed.blend'
element vertex 32
property float x
property float y
property float z
property float nx
property float ny
property float nz
property uchar red
property uchar green
property uchar blue
element face 12
property list uchar uint vertex_indices
end_header
-65.248497 102.889000 -7.116496 -0.575234 0.817989 0.000000 192 192 192
-65.248497 102.889000 1.045505 -0.575234 0.817989 0.000000 192 192 192
-50.829300 113.028999 1.045505 -0.575234 0.817989 0.000000 192 192 192
5.034520 127.287003 1.060506 -0.120230 0.992746 0.000000 192 192 192
5.034520 127.287003 -7.116494 -0.120230 0.992746 0.000000 192 192 192
-23.848801 123.789001 -7.116495 -0.120230 0.992746 0.000000 192 192 192
5.034520 127.287003 1.060506 -0.120229 0.992746 0.000000 192 192 192
-23.848801 123.789001 -7.116495 -0.120229 0.992746 0.000000 192 192 192
-23.848801 123.789001 1.045505 -0.120229 0.992746 0.000000 192 192 192
5.034520 127.287003 -7.116494 0.137558 0.990494 0.000000 192 192 192
5.034520 127.287003 1.060506 0.137558 0.990494 0.000000 192 192 192
33.851101 123.285004 1.045505 0.137558 0.990494 0.000000 192 192 192
5.034520 127.287003 -7.116494 0.137558 0.990494 0.000002 192 192 192
33.851101 123.285004 1.045505 0.137558 0.990494 0.000002 192 192 192
33.851200 123.285004 -7.116495 0.137558 0.990494 0.000002 192 192 192
33.851200 123.285004 -7.116495 0.386587 0.922253 0.000005 192 192 192
33.851101 123.285004 1.045505 0.386587 0.922253 0.000005 192 192 192
60.639301 112.056000 1.045505 0.386587 0.922253 0.000005 192 192 192
33.851200 123.285004 -7.116495 0.386589 0.922252 -0.000000 192 192 192
60.639301 112.056000 1.045505 0.386589 0.922252 -0.000000 192 192 192
60.639301 112.056000 -7.116495 0.386589 0.922252 -0.000000 192 192 192
-23.848801 123.789001 1.045505 -0.370435 0.928858 0.000000 192 192 192
-23.848801 123.789001 -7.116495 -0.370435 0.928858 0.000000 192 192 192
-50.829300 113.028999 -7.116495 -0.370435 0.928858 0.000000 192 192 192
-50.829300 113.028999 1.045505 -0.370435 0.928858 0.000000 192 192 192
60.639301 112.056000 -7.116495 0.589320 0.807900 0.000000 192 192 192
60.639301 112.056000 1.045505 0.589320 0.807900 0.000000 192 192 192
74.819901 101.711998 1.045504 0.589320 0.807900 0.000000 192 192 192
74.819901 101.711998 -7.116496 0.589320 0.807900 -0.000000 192 192 192
-50.829300 113.028999 1.045505 -0.575234 0.817989 0.000000 192 192 192
-50.829300 113.028999 -7.116495 -0.575234 0.817989 0.000000 192 192 192
-65.248497 102.889000 -7.116496 -0.575234 0.817989 0.000000 192 192 192
3 0 1 2
3 3 4 5
3 6 7 8
3 9 10 11
3 12 13 14
3 15 16 17
3 18 19 20
3 21 22 23
3 21 23 24
3 25 26 27
3 25 27 28
3 29 30 31
