ply
format ascii 1.0
comment VCGLIB generated
element vertex 482
property float x
property float y
property float z
element face 960
property list uchar int vertex_indices
end_header
-0.305406 0.003169 -8.15569 
-0.448737 0.002619 -7.13203 
-0.440281 0.088479 -7.13203 
-0.299738 0.060713 -8.15569 
-0.980785 0 2.12609 
-0.92388 0 2.95109 
-0.906127 0.18024 2.95109 
-0.96194 0.191342 2.12609 
-0.19509 0 -9.50004 
-0.191341 0.03806 -9.50004 
-0.955533 0 1.33052 
-0.937173 0.186415 1.33052 
-0.19509 0 5.58145 
0 -0 5.66595 
-0.191342 0.03806 5.58145 
0 0 -11.367 
-0.902664 0 -0.236623 
-0.88532 0.176101 -0.236623 
-0.382683 0 5.33119 
-0.37533 0.074658 5.33119 
-0.83196 0 -1.86089 
-0.815974 0.162307 -1.86089 
-0.55557 0 4.92478 
-0.544895 0.108386 4.92478 
-0.721791 0 -3.55562 
-0.707922 0.140814 -3.55562 
-0.707107 0 4.37786 
-0.69352 0.13795 4.37786 
-0.608166 0 -5.2943 
-0.59648 0.118647 -5.2943 
-0.83147 0 3.71142 
-0.815493 0.162212 3.71142 
-0.653281 0.270598 4.37786 
-0.768178 0.31819 3.71142 
-0.561872 0.232735 -5.2943 
-0.415236 0.171039 -7.13203 
-0.853553 0.353553 2.95109 
-0.282953 0.116045 -8.15569 
-0.906127 0.37533 2.12609 
-0.18024 0.074658 -9.50004 
-0.882797 0.365667 1.33052 
-0.18024 0.074658 5.58145 
-0.833953 0.345435 -0.236623 
-0.353553 0.146447 5.33119 
-0.768631 0.318377 -1.86089 
-0.51328 0.212608 4.92478 
-0.666848 0.276218 -3.55562 
-0.794497 0.530866 1.33052 
-0.750538 0.501494 -0.236623 
-0.162212 0.108387 5.58145 
-0.31819 0.212608 5.33119 
-0.69175 0.462212 -1.86089 
-0.46194 0.308658 4.92478 
-0.600147 0.401006 -3.55562 
-0.587938 0.392848 4.37786 
-0.505671 0.337879 -5.2943 
-0.691342 0.46194 3.71142 
-0.374567 0.247127 -7.13203 
-0.768178 0.51328 2.95109 
-0.255696 0.16704 -8.15569 
-0.815493 0.544895 2.12609 
-0.162211 0.108386 -9.50004 
-0.430038 0.430038 -5.2943 
-0.319834 0.313819 -7.13203 
-0.587938 0.587938 3.71142 
-0.653281 0.653282 2.95109 
-0.219014 0.211737 -8.15569 
-0.69352 0.69352 2.12609 
-0.137949 0.13795 -9.50004 
-0.675664 0.675664 1.33052 
-0.13795 0.13795 5.58145 
-0.63828 0.63828 -0.236623 
-0.270598 0.270598 5.33119 
-0.588285 0.588285 -1.86089 
-0.392847 0.392848 4.92478 
-0.510383 0.510383 -3.55562 
-0.5 0.5 4.37786 
-0.501493 0.750538 -0.236623 
-0.462212 0.69175 -1.86089 
-0.212607 0.31819 5.33119 
-0.308658 0.46194 4.92478 
-0.401005 0.600147 -3.55562 
-0.392847 0.587938 4.37786 
-0.337879 0.505672 -5.2943 
-0.46194 0.691342 3.71142 
-0.253142 0.368552 -7.13203 
-0.51328 0.768178 2.95109 
-0.174317 0.248419 -8.15569 
-0.544895 0.815493 2.12609 
-0.108386 0.162212 -9.50004 
-0.530865 0.794497 1.33052 
-0.108386 0.162212 5.58145 
-0.177054 0.409222 -7.13203 
-0.123322 0.275677 -8.15569 
-0.353553 0.853554 2.95109 
-0.37533 0.906128 2.12609 
-0.074658 0.18024 -9.50004 
-0.365666 0.882798 1.33052 
-0.074658 0.18024 5.58145 
-0.345434 0.833953 -0.236623 
-0.146446 0.353554 5.33119 
-0.318377 0.768631 -1.86089 
-0.212607 0.51328 4.92478 
-0.276217 0.666848 -3.55562 
-0.270598 0.653282 4.37786 
-0.232735 0.561872 -5.2943 
-0.318189 0.768178 3.71142 
-0.074658 0.375331 5.33119 
-0.108386 0.544895 4.92478 
-0.162307 0.815974 -1.86089 
-0.140814 0.707922 -3.55562 
-0.137949 0.69352 4.37786 
-0.118647 0.59648 -5.2943 
-0.162211 0.815493 3.71142 
-0.094494 0.434266 -7.13203 
-0.18024 0.906128 2.95109 
-0.067989 0.292462 -8.15569 
-0.191341 0.96194 2.12609 
-0.03806 0.191342 -9.50004 
-0.186415 0.937173 1.33052 
-0.03806 0.191342 5.58145 
-0.176101 0.88532 -0.236623 
0 0.92388 2.95109 
0 0.980785 2.12609 
-0.010445 0.298129 -8.15569 
0 0.19509 -9.50004 
0 0.955533 1.33052 
0 0.195091 5.58145 
0 0.902664 -0.236623 
0 0.382684 5.33119 
0 0.83196 -1.86089 
0 0.55557 4.92478 
0 0.721791 -3.55562 
0 0.707107 4.37786 
0 0.608166 -5.2943 
0 0.83147 3.71142 
-0.008634 0.442722 -7.13203 
0.162308 0.815974 -1.86089 
0.140815 0.707922 -3.55562 
0.108387 0.544895 4.92478 
0.13795 0.69352 4.37786 
0.118648 0.59648 -5.2943 
0.162212 0.815493 3.71142 
0.077226 0.434266 -7.13203 
0.18024 0.906128 2.95109 
0.047099 0.292462 -8.15569 
0.191342 0.96194 2.12609 
0.038061 0.191342 -9.50004 
0.186416 0.937173 1.33052 
0.038061 0.191342 5.58145 
0.176101 0.88532 -0.236623 
0.074658 0.375331 5.33119 
0.102431 0.275677 -8.15569 
0.074658 0.18024 -9.50004 
0.375331 0.906127 2.12609 
0.365667 0.882798 1.33052 
0.074658 0.18024 5.58145 
0.345435 0.833953 -0.236623 
0.146447 0.353554 5.33119 
0.318378 0.768631 -1.86089 
0.212608 0.51328 4.92478 
0.276218 0.666848 -3.55562 
0.270598 0.653282 4.37786 
0.232735 0.561872 -5.2943 
0.31819 0.768178 3.71142 
0.159786 0.409221 -7.13203 
0.353554 0.853554 2.95109 
0.308659 0.46194 4.92478 
0.392848 0.587938 4.37786 
0.401006 0.600147 -3.55562 
0.337879 0.505672 -5.2943 
0.46194 0.691342 3.71142 
0.235874 0.368552 -7.13203 
0.51328 0.768178 2.95109 
0.153426 0.248419 -8.15569 
0.544895 0.815493 2.12609 
0.108387 0.162212 -9.50004 
0.530866 0.794497 1.33052 
0.108387 0.162212 5.58145 
0.501494 0.750538 -0.236623 
0.212608 0.31819 5.33119 
0.462213 0.69175 -1.86089 
0.69352 0.69352 2.12609 
0.675664 0.675664 1.33052 
0.13795 0.13795 5.58145 
0.13795 0.13795 -9.50004 
0.63828 0.63828 -0.236623 
0.270599 0.270598 5.33119 
0.588285 0.588285 -1.86089 
0.392848 0.392848 4.92478 
0.510384 0.510383 -3.55562 
0.5 0.5 4.37786 
0.430039 0.430038 -5.2943 
0.587938 0.587938 3.71142 
0.302566 0.313819 -7.13203 
0.653282 0.653282 2.95109 
0.198123 0.211737 -8.15569 
0.600147 0.401006 -3.55562 
0.505672 0.337879 -5.2943 
0.587938 0.392848 4.37786 
0.691342 0.46194 3.71142 
0.357298 0.247127 -7.13203 
0.768178 0.51328 2.95109 
0.234805 0.16704 -8.15569 
0.815493 0.544895 2.12609 
0.162212 0.108386 -9.50004 
0.794497 0.530866 1.33052 
0.162212 0.108386 5.58145 
0.750538 0.501493 -0.236623 
0.31819 0.212608 5.33119 
0.69175 0.462212 -1.86089 
0.46194 0.308658 4.92478 
0.18024 0.074658 -9.50004 
0.882798 0.365667 1.33052 
0.833953 0.345435 -0.236623 
0.18024 0.074658 5.58145 
0.353554 0.146447 5.33119 
0.768631 0.318377 -1.86089 
0.51328 0.212608 4.92478 
0.666848 0.276217 -3.55562 
0.653282 0.270598 4.37786 
0.561872 0.232735 -5.2943 
0.768178 0.31819 3.71142 
0.397968 0.171039 -7.13203 
0.853554 0.353553 2.95109 
0.343099 0.142766 -8.32592 
0.906128 0.37533 2.12609 
0.59648 0.118647 -5.2943 
0.423012 0.088479 -7.13203 
0.815493 0.162212 3.71142 
0.906128 0.18024 2.95109 
0.364288 0.072916 -8.32592 
0.96194 0.191342 2.12609 
0.191342 0.03806 -9.50004 
0.937173 0.186415 1.33052 
0.191342 0.03806 5.58145 
0.88532 0.176101 -0.236623 
0.375331 0.074658 5.33119 
0.815975 0.162307 -1.86089 
0.544896 0.108386 4.92478 
0.707922 0.140814 -3.55562 
0.69352 0.13795 4.37786 
0.195091 -0 5.58145 
0.382684 0 5.33119 
0.902665 -0 -0.236623 
0.831961 0 -1.86089 
0.555571 0 4.92478 
0.721791 -0 -3.55562 
0.707107 -0 4.37786 
0.608166 -0 -5.2943 
0.83147 -0 3.71142 
0.431469 0.002619 -7.13203 
0.92388 0 2.95109 
0.371442 0.000275 -8.32592 
0.980785 -0 2.12609 
0.195091 0 -9.50004 
0.955534 -0 1.33052 
0.815493 -0.162212 3.71142 
0.906128 -0.18024 2.95109 
0.423012 -0.083241 -7.13203 
0.364288 -0.072367 -8.32592 
0.96194 -0.191342 2.12609 
0.191342 -0.03806 -9.50004 
0.937173 -0.186415 1.33052 
0.191342 -0.03806 5.58145 
0.88532 -0.176101 -0.236623 
0.375331 -0.074658 5.33119 
0.815975 -0.162307 -1.86089 
0.544896 -0.108386 4.92478 
0.707922 -0.140814 -3.55562 
0.69352 -0.13795 4.37786 
0.59648 -0.118647 -5.2943 
0.833953 -0.345435 -0.236623 
0.768631 -0.318377 -1.86089 
0.353554 -0.146447 5.33119 
0.51328 -0.212608 4.92478 
0.666848 -0.276217 -3.55562 
0.653282 -0.270598 4.37786 
0.561872 -0.232735 -5.2943 
0.768178 -0.31819 3.71142 
0.397968 -0.165801 -7.13203 
0.853554 -0.353553 2.95109 
0.343099 -0.142216 -8.32592 
0.906127 -0.37533 2.12609 
0.18024 -0.074658 -9.50004 
0.882798 -0.365667 1.33052 
0.18024 -0.074658 5.58145 
0.357298 -0.241889 -7.13203 
0.30869 -0.20659 -8.32592 
0.768178 -0.51328 2.95109 
0.815493 -0.544895 2.12609 
0.162212 -0.108386 -9.50004 
0.794497 -0.530866 1.33052 
0.162212 -0.108386 5.58145 
0.750538 -0.501493 -0.236623 
0.31819 -0.212608 5.33119 
0.69175 -0.462212 -1.86089 
0.46194 -0.308658 4.92478 
0.600147 -0.401005 -3.55562 
0.587938 -0.392847 4.37786 
0.505672 -0.337879 -5.2943 
0.691342 -0.46194 3.71142 
0.270598 -0.270598 5.33119 
0.392848 -0.392848 4.92478 
0.588285 -0.588285 -1.86089 
0.510383 -0.510383 -3.55562 
0.5 -0.5 4.37786 
0.430038 -0.430038 -5.2943 
0.587938 -0.587938 3.71142 
0.302566 -0.308581 -7.13203 
0.653282 -0.653281 2.95109 
0.262384 -0.263015 -8.32592 
0.69352 -0.69352 2.12609 
0.13795 -0.13795 -9.50004 
0.675664 -0.675664 1.33052 
0.13795 -0.13795 5.58145 
0.63828 -0.63828 -0.236623 
0.51328 -0.768178 2.95109 
0.544895 -0.815493 2.12609 
0.20596 -0.309321 -8.32592 
0.108387 -0.162212 -9.50004 
0.530866 -0.794497 1.33052 
0.108387 -0.162212 5.58145 
0.501493 -0.750538 -0.236623 
0.212608 -0.31819 5.33119 
0.462213 -0.69175 -1.86089 
0.308659 -0.46194 4.92478 
0.401006 -0.600147 -3.55562 
0.392848 -0.587938 4.37786 
0.337879 -0.505671 -5.2943 
0.46194 -0.691342 3.71142 
0.235874 -0.363313 -7.13203 
0.318378 -0.768631 -1.86089 
0.276217 -0.666848 -3.55562 
0.212608 -0.51328 4.92478 
0.270598 -0.653281 4.37786 
0.232735 -0.561872 -5.2943 
0.31819 -0.768177 3.71142 
0.159786 -0.403983 -7.13203 
0.353554 -0.853553 2.95109 
0.102431 -0.269339 -8.15569 
0.37533 -0.906127 2.12609 
0.074658 -0.18024 -9.50004 
0.365667 -0.882797 1.33052 
0.074658 -0.18024 5.58145 
0.345435 -0.833953 -0.236623 
0.146447 -0.353553 5.33119 
0.047099 -0.286124 -8.15569 
0.038061 -0.191342 -9.50004 
0.191342 -0.961939 2.12609 
0.186415 -0.937173 1.33052 
0.038061 -0.191342 5.58145 
0.176101 -0.88532 -0.236623 
0.074658 -0.37533 5.33119 
0.162308 -0.815974 -1.86089 
0.108387 -0.544895 4.92478 
0.140815 -0.707922 -3.55562 
0.13795 -0.69352 4.37786 
0.118647 -0.59648 -5.2943 
0.162212 -0.815493 3.71142 
0.077226 -0.429027 -7.13203 
0.18024 -0.906127 2.95109 
0 -0.721791 -3.55562 
0 -0.608166 -5.2943 
0 -0.707107 4.37786 
0 -0.831469 3.71142 
-0.008634 -0.437484 -7.13203 
0 -0.923879 2.95109 
-0.010445 -0.291792 -8.15569 
0 -0.980785 2.12609 
0 -0.19509 -9.50004 
0 -0.955533 1.33052 
0 -0.19509 5.58145 
0 -0.902664 -0.236623 
0 -0.382683 5.33119 
0 -0.83196 -1.86089 
0 -0.55557 4.92478 
-0.03806 -0.191342 5.58145 
-0.03806 -0.191342 -9.50004 
-0.186415 -0.937173 1.33052 
-0.176101 -0.885319 -0.236623 
-0.074658 -0.37533 5.33119 
-0.162307 -0.815974 -1.86089 
-0.108386 -0.544895 4.92478 
-0.140814 -0.707921 -3.55562 
-0.137949 -0.69352 4.37786 
-0.118647 -0.59648 -5.2943 
-0.162211 -0.815493 3.71142 
-0.094494 -0.429027 -7.13203 
-0.18024 -0.906127 2.95109 
-0.067989 -0.286124 -8.15569 
-0.191342 -0.961939 2.12609 
-0.270598 -0.653281 4.37786 
-0.318189 -0.768177 3.71142 
-0.232735 -0.561872 -5.2943 
-0.177054 -0.403983 -7.13203 
-0.353553 -0.853553 2.95109 
-0.123322 -0.269339 -8.15569 
-0.37533 -0.906127 2.12609 
-0.074657 -0.18024 -9.50004 
-0.365666 -0.882797 1.33052 
-0.074658 -0.18024 5.58145 
-0.345434 -0.833953 -0.236623 
-0.146446 -0.353553 5.33119 
-0.318377 -0.768631 -1.86089 
-0.212607 -0.51328 4.92478 
-0.276217 -0.666847 -3.55562 
-0.530865 -0.794496 1.33052 
-0.501493 -0.750538 -0.236623 
-0.108386 -0.162212 5.58145 
-0.212607 -0.31819 5.33119 
-0.462212 -0.69175 -1.86089 
-0.308658 -0.46194 4.92478 
-0.401005 -0.600147 -3.55562 
-0.392847 -0.587938 4.37786 
-0.337879 -0.505671 -5.2943 
-0.461939 -0.691341 3.71142 
-0.253142 -0.363313 -7.13203 
-0.51328 -0.768178 2.95109 
-0.174316 -0.242082 -8.15569 
-0.544895 -0.815493 2.12609 
-0.108386 -0.162212 -9.50004 
-0.430038 -0.430038 -5.2943 
-0.319834 -0.30858 -7.13203 
-0.587937 -0.587937 3.71142 
-0.653281 -0.653281 2.95109 
-0.219014 -0.2054 -8.15569 
-0.693519 -0.693519 2.12609 
-0.137949 -0.13795 -9.50004 
-0.675664 -0.675664 1.33052 
-0.137949 -0.13795 5.58145 
-0.63828 -0.63828 -0.236623 
-0.270598 -0.270598 5.33119 
-0.588284 -0.588285 -1.86089 
-0.392847 -0.392847 4.92478 
-0.510383 -0.510383 -3.55562 
-0.5 -0.5 4.37786 
-0.162211 -0.108386 5.58145 
-0.318189 -0.212607 5.33119 
-0.750537 -0.501493 -0.236623 
-0.691749 -0.462212 -1.86089 
-0.461939 -0.308658 4.92478 
-0.600147 -0.401005 -3.55562 
-0.587937 -0.392847 4.37786 
-0.505671 -0.337879 -5.2943 
-0.691341 -0.461939 3.71142 
-0.374566 -0.241889 -7.13203 
-0.768177 -0.51328 2.95109 
-0.255696 -0.160702 -8.15569 
-0.815492 -0.544895 2.12609 
-0.162211 -0.108386 -9.50004 
-0.794496 -0.530865 1.33052 
-0.768177 -0.318189 3.71142 
-0.853553 -0.353553 2.95109 
-0.415236 -0.165801 -7.13203 
-0.282953 -0.109708 -8.15569 
-0.906127 -0.37533 2.12609 
-0.18024 -0.074658 -9.50004 
-0.882797 -0.365666 1.33052 
-0.18024 -0.074658 5.58145 
-0.833952 -0.345434 -0.236623 
-0.353553 -0.146447 5.33119 
-0.768631 -0.318377 -1.86089 
-0.51328 -0.212607 4.92478 
-0.666847 -0.276217 -3.55562 
-0.653281 -0.270598 4.37786 
-0.561872 -0.232735 -5.2943 
-0.885319 -0.176101 -0.236623 
-0.815974 -0.162307 -1.86089 
-0.37533 -0.074658 5.33119 
-0.544895 -0.108386 4.92478 
-0.707921 -0.140814 -3.55562 
-0.69352 -0.13795 4.37786 
-0.59648 -0.118647 -5.2943 
-0.815492 -0.162211 3.71142 
-0.44028 -0.08324 -7.13203 
-0.906127 -0.18024 2.95109 
-0.299738 -0.054375 -8.15569 
-0.961939 -0.191341 2.12609 
-0.191341 -0.03806 -9.50004 
-0.937172 -0.186415 1.33052 
-0.191342 -0.03806 5.58145 
3 0 1 2 
3 0 2 3 
3 4 5 6 
3 4 6 7 
3 8 0 3 
3 8 3 9 
3 10 4 7 
3 10 7 11 
3 12 13 14 
3 15 8 9 
3 16 10 11 
3 16 11 17 
3 18 12 14 
3 18 14 19 
3 20 16 17 
3 20 17 21 
3 22 18 19 
3 22 19 23 
3 24 20 21 
3 24 21 25 
3 26 22 23 
3 26 23 27 
3 28 24 25 
3 28 25 29 
3 30 26 27 
3 30 27 31 
3 1 28 29 
3 1 29 2 
3 5 30 31 
3 5 31 6 
3 31 27 32 
3 31 32 33 
3 2 29 34 
3 2 34 35 
3 6 31 33 
3 6 33 36 
3 3 2 35 
3 3 35 37 
3 7 6 36 
3 7 36 38 
3 9 3 37 
3 9 37 39 
3 11 7 38 
3 11 38 40 
3 14 13 41 
3 15 9 39 
3 17 11 40 
3 17 40 42 
3 19 14 41 
3 19 41 43 
3 21 17 42 
3 21 42 44 
3 23 19 43 
3 23 43 45 
3 25 21 44 
3 25 44 46 
3 27 23 45 
3 27 45 32 
3 29 25 46 
3 29 46 34 
3 42 40 47 
3 42 47 48 
3 43 41 49 
3 43 49 50 
3 44 42 48 
3 44 48 51 
3 45 43 50 
3 45 50 52 
3 46 44 51 
3 46 51 53 
3 32 45 52 
3 32 52 54 
3 34 46 53 
3 34 53 55 
3 33 32 54 
3 33 54 56 
3 35 34 55 
3 35 55 57 
3 36 33 56 
3 36 56 58 
3 37 35 57 
3 37 57 59 
3 38 36 58 
3 38 58 60 
3 39 37 59 
3 39 59 61 
3 40 38 60 
3 40 60 47 
3 41 13 49 
3 15 39 61 
3 57 55 62 
3 57 62 63 
3 58 56 64 
3 58 64 65 
3 59 57 63 
3 59 63 66 
3 60 58 65 
3 60 65 67 
3 61 59 66 
3 61 66 68 
3 47 60 67 
3 47 67 69 
3 49 13 70 
3 15 61 68 
3 48 47 69 
3 48 69 71 
3 50 49 70 
3 50 70 72 
3 51 48 71 
3 51 71 73 
3 52 50 72 
3 52 72 74 
3 53 51 73 
3 53 73 75 
3 54 52 74 
3 54 74 76 
3 55 53 75 
3 55 75 62 
3 56 54 76 
3 56 76 64 
3 73 71 77 
3 73 77 78 
3 74 72 79 
3 74 79 80 
3 75 73 78 
3 75 78 81 
3 76 74 80 
3 76 80 82 
3 62 75 81 
3 62 81 83 
3 64 76 82 
3 64 82 84 
3 63 62 83 
3 63 83 85 
3 65 64 84 
3 65 84 86 
3 66 63 85 
3 66 85 87 
3 67 65 86 
3 67 86 88 
3 68 66 87 
3 68 87 89 
3 69 67 88 
3 69 88 90 
3 70 13 91 
3 15 68 89 
3 71 69 90 
3 71 90 77 
3 72 70 91 
3 72 91 79 
3 87 85 92 
3 87 92 93 
3 88 86 94 
3 88 94 95 
3 89 87 93 
3 89 93 96 
3 90 88 95 
3 90 95 97 
3 91 13 98 
3 15 89 96 
3 77 90 97 
3 77 97 99 
3 79 91 98 
3 79 98 100 
3 78 77 99 
3 78 99 101 
3 80 79 100 
3 80 100 102 
3 81 78 101 
3 81 101 103 
3 82 80 102 
3 82 102 104 
3 83 81 103 
3 83 103 105 
3 84 82 104 
3 84 104 106 
3 85 83 105 
3 85 105 92 
3 86 84 106 
3 86 106 94 
3 102 100 107 
3 102 107 108 
3 103 101 109 
3 103 109 110 
3 104 102 108 
3 104 108 111 
3 105 103 110 
3 105 110 112 
3 106 104 111 
3 106 111 113 
3 92 105 112 
3 92 112 114 
3 94 106 113 
3 94 113 115 
3 93 92 114 
3 93 114 116 
3 95 94 115 
3 95 115 117 
3 96 93 116 
3 96 116 118 
3 97 95 117 
3 97 117 119 
3 98 13 120 
3 15 96 118 
3 99 97 119 
3 99 119 121 
3 100 98 120 
3 100 120 107 
3 101 99 121 
3 101 121 109 
3 117 115 122 
3 117 122 123 
3 118 116 124 
3 118 124 125 
3 119 117 123 
3 119 123 126 
3 120 13 127 
3 15 118 125 
3 121 119 126 
3 121 126 128 
3 107 120 127 
3 107 127 129 
3 109 121 128 
3 109 128 130 
3 108 107 129 
3 108 129 131 
3 110 109 130 
3 110 130 132 
3 111 108 131 
3 111 131 133 
3 112 110 132 
3 112 132 134 
3 113 111 133 
3 113 133 135 
3 114 112 134 
3 114 134 136 
3 115 113 135 
3 115 135 122 
3 116 114 136 
3 116 136 124 
3 132 130 137 
3 132 137 138 
3 133 131 139 
3 133 139 140 
3 134 132 138 
3 134 138 141 
3 135 133 140 
3 135 140 142 
3 136 134 141 
3 136 141 143 
3 122 135 142 
3 122 142 144 
3 124 136 143 
3 124 143 145 
3 123 122 144 
3 123 144 146 
3 125 124 145 
3 125 145 147 
3 126 123 146 
3 126 146 148 
3 127 13 149 
3 15 125 147 
3 128 126 148 
3 128 148 150 
3 129 127 149 
3 129 149 151 
3 130 128 150 
3 130 150 137 
3 131 129 151 
3 131 151 139 
3 147 145 152 
3 147 152 153 
3 148 146 154 
3 148 154 155 
3 149 13 156 
3 15 147 153 
3 150 148 155 
3 150 155 157 
3 151 149 156 
3 151 156 158 
3 137 150 157 
3 137 157 159 
3 139 151 158 
3 139 158 160 
3 138 137 159 
3 138 159 161 
3 140 139 160 
3 140 160 162 
3 141 138 161 
3 141 161 163 
3 142 140 162 
3 142 162 164 
3 143 141 163 
3 143 163 165 
3 144 142 164 
3 144 164 166 
3 145 143 165 
3 145 165 152 
3 146 144 166 
3 146 166 154 
3 162 160 167 
3 162 167 168 
3 163 161 169 
3 163 169 170 
3 164 162 168 
3 164 168 171 
3 165 163 170 
3 165 170 172 
3 166 164 171 
3 166 171 173 
3 152 165 172 
3 152 172 174 
3 154 166 173 
3 154 173 175 
3 153 152 174 
3 153 174 176 
3 155 154 175 
3 155 175 177 
3 156 13 178 
3 15 153 176 
3 157 155 177 
3 157 177 179 
3 158 156 178 
3 158 178 180 
3 159 157 179 
3 159 179 181 
3 160 158 180 
3 160 180 167 
3 161 159 181 
3 161 181 169 
3 177 175 182 
3 177 182 183 
3 178 13 184 
3 15 176 185 
3 179 177 183 
3 179 183 186 
3 180 178 184 
3 180 184 187 
3 181 179 186 
3 181 186 188 
3 167 180 187 
3 167 187 189 
3 169 181 188 
3 169 188 190 
3 168 167 189 
3 168 189 191 
3 170 169 190 
3 170 190 192 
3 171 168 191 
3 171 191 193 
3 172 170 192 
3 172 192 194 
3 173 171 193 
3 173 193 195 
3 174 172 194 
3 174 194 196 
3 175 173 195 
3 175 195 182 
3 176 174 196 
3 176 196 185 
3 192 190 197 
3 192 197 198 
3 193 191 199 
3 193 199 200 
3 194 192 198 
3 194 198 201 
3 195 193 200 
3 195 200 202 
3 196 194 201 
3 196 201 203 
3 182 195 202 
3 182 202 204 
3 185 196 203 
3 185 203 205 
3 183 182 204 
3 183 204 206 
3 184 13 207 
3 15 185 205 
3 186 183 206 
3 186 206 208 
3 187 184 207 
3 187 207 209 
3 188 186 208 
3 188 208 210 
3 189 187 209 
3 189 209 211 
3 190 188 210 
3 190 210 197 
3 191 189 211 
3 191 211 199 
3 15 205 212 
3 208 206 213 
3 208 213 214 
3 209 207 215 
3 209 215 216 
3 210 208 214 
3 210 214 217 
3 211 209 216 
3 211 216 218 
3 197 210 217 
3 197 217 219 
3 199 211 218 
3 199 218 220 
3 198 197 219 
3 198 219 221 
3 200 199 220 
3 200 220 222 
3 201 198 221 
3 201 221 223 
3 202 200 222 
3 202 222 224 
3 203 201 223 
3 203 223 225 
3 204 202 224 
3 204 224 226 
3 205 203 225 
3 205 225 212 
3 206 204 226 
3 206 226 213 
3 207 13 215 
3 223 221 227 
3 223 227 228 
3 224 222 229 
3 224 229 230 
3 225 223 228 
3 225 228 231 
3 226 224 230 
3 226 230 232 
3 212 225 231 
3 212 231 233 
3 213 226 232 
3 213 232 234 
3 215 13 235 
3 15 212 233 
3 214 213 234 
3 214 234 236 
3 216 215 235 
3 216 235 237 
3 217 214 236 
3 217 236 238 
3 218 216 237 
3 218 237 239 
3 219 217 238 
3 219 238 240 
3 220 218 239 
3 220 239 241 
3 221 219 240 
3 221 240 227 
3 222 220 241 
3 222 241 229 
3 237 235 242 
3 237 242 243 
3 238 236 244 
3 238 244 245 
3 239 237 243 
3 239 243 246 
3 240 238 245 
3 240 245 247 
3 241 239 246 
3 241 246 248 
3 227 240 247 
3 227 247 249 
3 229 241 248 
3 229 248 250 
3 228 227 249 
3 228 249 251 
3 230 229 250 
3 230 250 252 
3 231 228 251 
3 231 251 253 
3 232 230 252 
3 232 252 254 
3 233 231 253 
3 233 253 255 
3 234 232 254 
3 234 254 256 
3 235 13 242 
3 15 233 255 
3 236 234 256 
3 236 256 244 
3 252 250 257 
3 252 257 258 
3 253 251 259 
3 253 259 260 
3 254 252 258 
3 254 258 261 
3 255 253 260 
3 255 260 262 
3 256 254 261 
3 256 261 263 
3 242 13 264 
3 15 255 262 
3 244 256 263 
3 244 263 265 
3 243 242 264 
3 243 264 266 
3 245 244 265 
3 245 265 267 
3 246 243 266 
3 246 266 268 
3 247 245 267 
3 247 267 269 
3 248 246 268 
3 248 268 270 
3 249 247 269 
3 249 269 271 
3 250 248 270 
3 250 270 257 
3 251 249 271 
3 251 271 259 
3 267 265 272 
3 267 272 273 
3 268 266 274 
3 268 274 275 
3 269 267 273 
3 269 273 276 
3 270 268 275 
3 270 275 277 
3 271 269 276 
3 271 276 278 
3 257 270 277 
3 257 277 279 
3 259 271 278 
3 259 278 280 
3 258 257 279 
3 258 279 281 
3 260 259 280 
3 260 280 282 
3 261 258 281 
3 261 281 283 
3 262 260 282 
3 262 282 284 
3 263 261 283 
3 263 283 285 
3 264 13 286 
3 15 262 284 
3 265 263 285 
3 265 285 272 
3 266 264 286 
3 266 286 274 
3 282 280 287 
3 282 287 288 
3 283 281 289 
3 283 289 290 
3 284 282 288 
3 284 288 291 
3 285 283 290 
3 285 290 292 
3 286 13 293 
3 15 284 291 
3 272 285 292 
3 272 292 294 
3 274 286 293 
3 274 293 295 
3 273 272 294 
3 273 294 296 
3 275 274 295 
3 275 295 297 
3 276 273 296 
3 276 296 298 
3 277 275 297 
3 277 297 299 
3 278 276 298 
3 278 298 300 
3 279 277 299 
3 279 299 301 
3 280 278 300 
3 280 300 287 
3 281 279 301 
3 281 301 289 
3 297 295 302 
3 297 302 303 
3 298 296 304 
3 298 304 305 
3 299 297 303 
3 299 303 306 
3 300 298 305 
3 300 305 307 
3 301 299 306 
3 301 306 308 
3 287 300 307 
3 287 307 309 
3 289 301 308 
3 289 308 310 
3 288 287 309 
3 288 309 311 
3 290 289 310 
3 290 310 312 
3 291 288 311 
3 291 311 313 
3 292 290 312 
3 292 312 314 
3 293 13 315 
3 15 291 313 
3 294 292 314 
3 294 314 316 
3 295 293 315 
3 295 315 302 
3 296 294 316 
3 296 316 304 
3 312 310 317 
3 312 317 318 
3 313 311 319 
3 313 319 320 
3 314 312 318 
3 314 318 321 
3 315 13 322 
3 15 313 320 
3 316 314 321 
3 316 321 323 
3 302 315 322 
3 302 322 324 
3 304 316 323 
3 304 323 325 
3 303 302 324 
3 303 324 326 
3 305 304 325 
3 305 325 327 
3 306 303 326 
3 306 326 328 
3 307 305 327 
3 307 327 329 
3 308 306 328 
3 308 328 330 
3 309 307 329 
3 309 329 331 
3 310 308 330 
3 310 330 317 
3 311 309 331 
3 311 331 319 
3 327 325 332 
3 327 332 333 
3 328 326 334 
3 328 334 335 
3 329 327 333 
3 329 333 336 
3 330 328 335 
3 330 335 337 
3 331 329 336 
3 331 336 338 
3 317 330 337 
3 317 337 339 
3 319 331 338 
3 319 338 340 
3 318 317 339 
3 318 339 341 
3 320 319 340 
3 320 340 342 
3 321 318 341 
3 321 341 343 
3 322 13 344 
3 15 320 342 
3 323 321 343 
3 323 343 345 
3 324 322 344 
3 324 344 346 
3 325 323 345 
3 325 345 332 
3 326 324 346 
3 326 346 334 
3 342 340 347 
3 342 347 348 
3 343 341 349 
3 343 349 350 
3 344 13 351 
3 15 342 348 
3 345 343 350 
3 345 350 352 
3 346 344 351 
3 346 351 353 
3 332 345 352 
3 332 352 354 
3 334 346 353 
3 334 353 355 
3 333 332 354 
3 333 354 356 
3 335 334 355 
3 335 355 357 
3 336 333 356 
3 336 356 358 
3 337 335 357 
3 337 357 359 
3 338 336 358 
3 338 358 360 
3 339 337 359 
3 339 359 361 
3 340 338 360 
3 340 360 347 
3 341 339 361 
3 341 361 349 
3 358 356 362 
3 358 362 363 
3 359 357 364 
3 359 364 365 
3 360 358 363 
3 360 363 366 
3 361 359 365 
3 361 365 367 
3 347 360 366 
3 347 366 368 
3 349 361 367 
3 349 367 369 
3 348 347 368 
3 348 368 370 
3 350 349 369 
3 350 369 371 
3 351 13 372 
3 15 348 370 
3 352 350 371 
3 352 371 373 
3 353 351 372 
3 353 372 374 
3 354 352 373 
3 354 373 375 
3 355 353 374 
3 355 374 376 
3 356 354 375 
3 356 375 362 
3 357 355 376 
3 357 376 364 
3 372 13 377 
3 15 370 378 
3 373 371 379 
3 373 379 380 
3 374 372 377 
3 374 377 381 
3 375 373 380 
3 375 380 382 
3 376 374 381 
3 376 381 383 
3 362 375 382 
3 362 382 384 
3 364 376 383 
3 364 383 385 
3 363 362 384 
3 363 384 386 
3 365 364 385 
3 365 385 387 
3 366 363 386 
3 366 386 388 
3 367 365 387 
3 367 387 389 
3 368 366 388 
3 368 388 390 
3 369 367 389 
3 369 389 391 
3 370 368 390 
3 370 390 378 
3 371 369 391 
3 371 391 379 
3 387 385 392 
3 387 392 393 
3 388 386 394 
3 388 394 395 
3 389 387 393 
3 389 393 396 
3 390 388 395 
3 390 395 397 
3 391 389 396 
3 391 396 398 
3 378 390 397 
3 378 397 399 
3 379 391 398 
3 379 398 400 
3 377 13 401 
3 15 378 399 
3 380 379 400 
3 380 400 402 
3 381 377 401 
3 381 401 403 
3 382 380 402 
3 382 402 404 
3 383 381 403 
3 383 403 405 
3 384 382 404 
3 384 404 406 
3 385 383 405 
3 385 405 392 
3 386 384 406 
3 386 406 394 
3 402 400 407 
3 402 407 408 
3 403 401 409 
3 403 409 410 
3 404 402 408 
3 404 408 411 
3 405 403 410 
3 405 410 412 
3 406 404 411 
3 406 411 413 
3 392 405 412 
3 392 412 414 
3 394 406 413 
3 394 413 415 
3 393 392 414 
3 393 414 416 
3 395 394 415 
3 395 415 417 
3 396 393 416 
3 396 416 418 
3 397 395 417 
3 397 417 419 
3 398 396 418 
3 398 418 420 
3 399 397 419 
3 399 419 421 
3 400 398 420 
3 400 420 407 
3 401 13 409 
3 15 399 421 
3 417 415 422 
3 417 422 423 
3 418 416 424 
3 418 424 425 
3 419 417 423 
3 419 423 426 
3 420 418 425 
3 420 425 427 
3 421 419 426 
3 421 426 428 
3 407 420 427 
3 407 427 429 
3 409 13 430 
3 15 421 428 
3 408 407 429 
3 408 429 431 
3 410 409 430 
3 410 430 432 
3 411 408 431 
3 411 431 433 
3 412 410 432 
3 412 432 434 
3 413 411 433 
3 413 433 435 
3 414 412 434 
3 414 434 436 
3 415 413 435 
3 415 435 422 
3 416 414 436 
3 416 436 424 
3 432 430 437 
3 432 437 438 
3 433 431 439 
3 433 439 440 
3 434 432 438 
3 434 438 441 
3 435 433 440 
3 435 440 442 
3 436 434 441 
3 436 441 443 
3 422 435 442 
3 422 442 444 
3 424 436 443 
3 424 443 445 
3 423 422 444 
3 423 444 446 
3 425 424 445 
3 425 445 447 
3 426 423 446 
3 426 446 448 
3 427 425 447 
3 427 447 449 
3 428 426 448 
3 428 448 450 
3 429 427 449 
3 429 449 451 
3 430 13 437 
3 15 428 450 
3 431 429 451 
3 431 451 439 
3 447 445 452 
3 447 452 453 
3 448 446 454 
3 448 454 455 
3 449 447 453 
3 449 453 456 
3 450 448 455 
3 450 455 457 
3 451 449 456 
3 451 456 458 
3 437 13 459 
3 15 450 457 
3 439 451 458 
3 439 458 460 
3 438 437 459 
3 438 459 461 
3 440 439 460 
3 440 460 462 
3 441 438 461 
3 441 461 463 
3 442 440 462 
3 442 462 464 
3 443 441 463 
3 443 463 465 
3 444 442 464 
3 444 464 466 
3 445 443 465 
3 445 465 452 
3 446 444 466 
3 446 466 454 
3 462 460 467 
3 462 467 468 
3 463 461 469 
3 463 469 470 
3 464 462 468 
3 464 468 471 
3 465 463 470 
3 465 470 472 
3 466 464 471 
3 466 471 473 
3 452 465 472 
3 452 472 474 
3 454 466 473 
3 454 473 475 
3 453 452 474 
3 453 474 476 
3 455 454 475 
3 455 475 477 
3 456 453 476 
3 456 476 478 
3 457 455 477 
3 457 477 479 
3 458 456 478 
3 458 478 480 
3 459 13 481 
3 15 457 479 
3 460 458 480 
3 460 480 467 
3 461 459 481 
3 461 481 469 
3 477 475 1 
3 477 1 0 
3 478 476 5 
3 478 5 4 
3 479 477 0 
3 479 0 8 
3 480 478 4 
3 480 4 10 
3 481 13 12 
3 15 479 8 
3 467 480 10 
3 467 10 16 
3 12 18 469 
3 12 469 481 
3 468 467 16 
3 468 16 20 
3 470 469 18 
3 470 18 22 
3 471 468 20 
3 471 20 24 
3 472 470 22 
3 472 22 26 
3 473 471 24 
3 473 24 28 
3 474 472 26 
3 474 26 30 
3 475 473 28 
3 475 28 1 
3 476 474 30 
3 476 30 5 
